<svg xmlns="http://www.w3.org/2000/svg" xmlns:xlink="http://www.w3.org/1999/xlink" width="500" zoomAndPan="magnify" viewBox="0 0 375 374.999991" height="500" preserveAspectRatio="xMidYMid meet" version="1.0"><defs><clipPath id="161f2c84a3"><path d="M 315 83 L 325.824219 83 L 325.824219 94 L 315 94 Z M 315 83 " clip-rule="nonzero"/></clipPath></defs><path fill="#cd0979" d="M 227.964844 156.902344 C 227.121094 161.125 226.070312 165.316406 224.785156 169.4375 C 222.011719 178.257812 218.1875 186.707031 213.351562 194.578125 L 176.988281 240.84375 C 164.03125 258.855469 148.707031 275.175781 131.523438 289.300781 C 128.78125 291.566406 125.976562 293.761719 123.097656 295.855469 C 116.808594 300.351562 110.109375 304.238281 102.769531 306.636719 C 92.078125 310.152344 79.765625 310.183594 70.058594 304.472656 C 61.835938 299.640625 56.289062 291.363281 52.027344 282.847656 C 48.238281 275.3125 45.160156 266.964844 46.140625 258.582031 C 47.121094 250.203125 53.175781 241.921875 61.566406 240.875 C 54.597656 237.835938 51.285156 229.117188 52.875 221.679688 C 54.464844 214.246094 59.976562 208.164062 66.371094 204.007812 C 88.5625 189.542969 113.796875 196.878906 137.78125 200.019531 C 105.203125 195.730469 66.707031 167.648438 51.417969 138.617188 C 38.597656 114.1875 29.601562 86.441406 33.996094 59.238281 C 38.359375 32 59.03125 6.117188 86.429688 2.667969 C 107.707031 0 132.234375 6.960938 148.808594 20.578125 C 170.695312 38.589844 185.140625 69.679688 179.726562 97.492188 C 187.914062 89.316406 198.570312 80.460938 209.664062 83.671875 C 219.136719 86.375 224.042969 96.75 226.542969 106.277344 C 230.839844 122.769531 231.214844 140.171875 227.964844 156.902344 Z M 227.964844 156.902344 " fill-opacity="1" fill-rule="nonzero"/><path fill="#e02499" d="M 221.097656 130.542969 C 219.40625 126.214844 216.363281 122.261719 212.335938 119.863281 C 208.617188 117.667969 203.8125 117.125 199.617188 118.105469 C 196.03125 118.949219 192.953125 121.046875 190.246094 123.511719 C 185.207031 128.175781 181.25 134.496094 174.820312 137.4375 C 174.789062 137.46875 174.753906 137.4375 174.71875 137.402344 C 173.503906 135.882812 172.859375 133.957031 172.386719 132.0625 C 171.101562 126.824219 170.964844 121.316406 170.730469 115.976562 C 170.628906 113.542969 170.558594 111.109375 170.289062 108.679688 C 169.949219 105.535156 169.34375 102.390625 168.835938 99.25 C 167.652344 92.1875 166.164062 85.089844 163.21875 78.5 C 160.582031 72.621094 156.792969 67.347656 151.71875 63.328125 C 142.992188 56.367188 131.488281 53.15625 120.394531 53.730469 C 114.8125 54 109.265625 55.25 104.191406 57.582031 C 98.640625 60.117188 93.839844 63.96875 89.847656 68.53125 C 85.890625 73.058594 82.8125 78.367188 81.050781 84.109375 C 79.394531 89.550781 78.851562 95.296875 79.257812 100.972656 C 80.105469 113.070312 84.875 124.660156 91.167969 134.902344 C 94.71875 140.714844 98.878906 146.121094 103.308594 151.289062 C 107.980469 156.730469 113.019531 161.867188 118.398438 166.667969 C 129.1875 176.296875 141.300781 184.542969 154.492188 190.558594 C 161.5625 193.769531 169.039062 196.203125 176.546875 198.230469 C 184.125 200.257812 191.835938 201.742188 199.617188 202.488281 C 202.019531 202.722656 204.457031 202.757812 206.855469 202.65625 L 213.25 194.546875 C 216.667969 189.003906 219.542969 183.191406 221.910156 177.175781 C 222.113281 175.214844 222.214844 173.222656 222.28125 171.296875 C 222.453125 166.902344 222.351562 162.511719 222.214844 158.117188 C 222.078125 154.027344 221.84375 149.9375 222.078125 145.851562 C 222.484375 140.679688 223.027344 135.507812 221.097656 130.542969 Z M 221.097656 130.542969 " fill-opacity="1" fill-rule="nonzero"/><path fill="#f45bc1" d="M 175.835938 154.839844 C 170.324219 158.996094 159.261719 160.347656 156.488281 153.453125 C 145.425781 128.617188 146.8125 91.34375 119.175781 83.0625 C 105.375 78.90625 102.601562 101.007812 106.726562 114.792969 C 119.039062 151.59375 152.800781 170.890625 185.546875 187.3125 C 187.980469 187.820312 190.6875 187.449219 192.414062 186.605469 C 207.601562 179.710938 221.4375 158.996094 207.601562 145.207031 C 197.925781 132.773438 185.511719 149.332031 175.835938 154.839844 Z M 175.835938 154.839844 " fill-opacity="1" fill-rule="nonzero"/><path fill="#cd0979" d="M 142.484375 214.179688 C 143.871094 214.179688 143.871094 214.179688 145.257812 214.179688 C 145.222656 214.113281 145.1875 214.042969 145.121094 213.976562 C 144.140625 213.941406 143.058594 214.179688 142.484375 214.179688 Z M 142.484375 214.179688 " fill-opacity="1" fill-rule="nonzero"/><path fill="#e02499" d="M 78.921875 226.617188 C 70.632812 234.894531 76.148438 247.332031 88.59375 245.945312 C 77.535156 247.332031 76.148438 259.730469 76.148438 268.011719 C 76.148438 280.449219 88.59375 287.339844 99.625 283.183594 C 127.261719 273.519531 135.546875 243.175781 146.609375 216.949219 C 147.386719 214.585938 145.1875 214.113281 145.222656 214.179688 C 137.613281 213.875 95.125 210.429688 78.921875 226.617188 Z M 78.921875 226.617188 " fill-opacity="1" fill-rule="nonzero"/><path fill="#f45bc1" d="M 97.558594 229.65625 C 93.398438 233.8125 96.171875 239.996094 102.398438 239.320312 C 96.882812 239.996094 96.171875 246.214844 96.171875 250.371094 C 96.171875 256.589844 102.398438 260.035156 107.910156 257.976562 C 121.710938 253.144531 125.875 237.96875 131.386719 224.859375 C 131.792969 223.675781 130.675781 223.4375 130.710938 223.472656 C 126.886719 223.269531 105.679688 221.546875 97.558594 229.65625 Z M 97.558594 229.65625 " fill-opacity="1" fill-rule="nonzero"/><path fill="#a50568" d="M 257.566406 206.136719 C 257.261719 214.992188 254.316406 223.878906 249.816406 231.582031 C 243.1875 243.003906 233.410156 252.265625 223.261719 260.746094 C 205.570312 275.546875 186.324219 288.523438 165.960938 299.371094 C 160.074219 302.480469 154.050781 305.488281 148.945312 309.78125 C 131.523438 324.480469 129.222656 350.027344 128.273438 372.804688 C 124.519531 375 119.445312 373.410156 116.503906 370.234375 C 113.558594 367.058594 112.34375 362.664062 111.597656 358.40625 C 108.046875 338.539062 112.171875 314.242188 123.066406 295.890625 C 125.941406 293.828125 128.75 291.597656 131.488281 289.335938 C 148.671875 275.242188 163.996094 258.921875 176.953125 240.875 L 213.285156 194.613281 C 218.121094 186.738281 221.945312 178.257812 224.71875 169.472656 C 237.402344 171.5 252.761719 181.941406 256.078125 193.597656 C 257.292969 197.65625 257.734375 201.878906 257.566406 206.136719 Z M 257.566406 206.136719 " fill-opacity="1" fill-rule="nonzero"/><path fill="#8c0660" d="M 125.90625 306.671875 C 159.464844 257.027344 226.949219 230.875 234.527344 172.410156 C 231.28125 170.992188 227.929688 169.945312 224.785156 169.4375 C 222.011719 178.257812 218.1875 186.707031 213.351562 194.578125 L 176.988281 240.84375 C 164.03125 258.855469 148.707031 275.175781 131.523438 289.300781 C 128.78125 291.566406 125.976562 293.761719 123.097656 295.855469 C 112.171875 314.207031 108.046875 338.503906 111.632812 358.375 C 112.207031 361.550781 113.019531 364.792969 114.644531 367.566406 C 110.753906 347.121094 114.238281 325.425781 125.90625 306.671875 Z M 125.90625 306.671875 " fill-opacity="1" fill-rule="nonzero"/><path fill="#8c0660" d="M 289.566406 179.746094 C 286.757812 193.195312 271.46875 204.988281 257.566406 206.101562 C 257.734375 201.878906 257.261719 197.621094 256.109375 193.53125 C 252.796875 181.875 237.472656 171.464844 224.75 169.402344 C 226.039062 165.28125 227.085938 161.125 227.933594 156.867188 C 233.003906 150.582031 240.515625 145.207031 246.910156 143.011719 C 250.359375 141.828125 253.980469 140.984375 257.597656 141.355469 C 259.832031 141.59375 269.132812 143.148438 271.164062 144.027344 C 271.5 144.160156 271.804688 144.328125 272.144531 144.464844 C 284.863281 150.683594 292.507812 165.921875 289.566406 179.746094 Z M 289.566406 179.746094 " fill-opacity="1" fill-rule="nonzero"/><path fill="#7c055a" d="M 257.9375 141.421875 C 257.835938 141.421875 257.699219 141.390625 257.632812 141.390625 C 254.011719 141.019531 250.394531 141.828125 246.941406 143.046875 C 240.550781 145.242188 233.039062 150.613281 227.964844 156.902344 C 227.121094 161.125 226.070312 165.316406 224.785156 169.4375 C 227.898438 169.945312 231.179688 170.957031 234.394531 172.34375 C 239.0625 159.839844 245.554688 147.167969 257.9375 141.421875 Z M 257.9375 141.421875 " fill-opacity="1" fill-rule="nonzero"/><path fill="#8c0660" d="M 261.960938 53.359375 C 255.367188 66.910156 250.902344 81.949219 253.132812 97.085938 C 254.113281 103.675781 256.617188 109.589844 259.628906 115.46875 C 263.28125 122.566406 273.125 136.21875 269.945312 144.296875 C 268.964844 146.796875 272.988281 147.84375 273.9375 145.410156 C 276.203125 139.632812 273.261719 134.191406 270.894531 128.886719 C 267.339844 120.980469 262.46875 113.542969 259.492188 105.433594 C 253.335938 88.808594 258.039062 70.796875 265.515625 55.453125 C 266.699219 53.089844 263.144531 50.960938 261.960938 53.359375 Z M 261.960938 53.359375 " fill-opacity="1" fill-rule="nonzero"/><path fill="#8c0660" d="M 276.609375 148.316406 C 304.246094 143.078125 298.023438 105.773438 318.554688 92.695312 C 320.789062 91.273438 318.726562 87.691406 316.457031 89.113281 C 307.898438 94.550781 303.402344 103.269531 299.984375 112.5625 C 295.28125 125.269531 290.886719 141.421875 275.492188 144.328125 C 272.886719 144.835938 274.003906 148.824219 276.609375 148.316406 Z M 276.609375 148.316406 " fill-opacity="1" fill-rule="nonzero"/><path fill="#8c0660" d="M 262.671875 54.304688 C 263.957031 57.246094 268.492188 57.007812 270.859375 54.878906 C 273.160156 52.785156 274.207031 49.269531 272.988281 46.398438 C 271.738281 43.558594 268.050781 41.871094 265.242188 43.222656 C 262.808594 44.402344 261.65625 47.242188 261.082031 49.878906 C 260.609375 52.140625 260.574219 54.980469 262.539062 56.265625 " fill-opacity="1" fill-rule="nonzero"/><g clip-path="url(#161f2c84a3)"><path fill="#8c0660" d="M 317.203125 86.847656 C 315.511719 87.421875 314.765625 89.652344 315.476562 91.308594 C 316.222656 92.929688 318.046875 93.875 319.839844 93.875 C 322.242188 93.875 324.578125 92.1875 325.1875 89.890625 C 325.796875 87.589844 324.542969 84.886719 322.3125 84.042969 C 320.078125 83.199219 317.238281 84.515625 316.59375 86.8125 " fill-opacity="1" fill-rule="nonzero"/></g></svg>