<svg width="41" height="39" viewBox="0 0 41 39" fill="none" xmlns="http://www.w3.org/2000/svg">
<path d="M17.4629 29.7553V6.52378C17.4629 3.825 14.1776 2.49861 12.3038 4.44092L1.0982 16.0567C-0.0230155 17.2189 -0.0230141 19.0602 1.0982 20.2224L12.3038 31.8381C14.1776 33.7804 17.4629 32.4541 17.4629 29.7553Z" fill="#D6D6D6"/>
<path d="M39.1778 33.723C33.5643 21.5009 30.2373 13.9834 17.463 12.945C4.68868 11.9066 17.463 23.334 17.463 23.334C28.7241 23.0234 34.4385 26.1433 39.1778 33.723Z" fill="#D6D6D6"/>
<path d="M18.3741 31.5692V8.33775C18.3741 5.63896 15.0887 4.31258 13.215 6.25489L2.00933 17.8706C0.888117 19.0329 0.888119 20.8741 2.00933 22.0364L13.215 33.6521C15.0887 35.5944 18.3741 34.268 18.3741 31.5692Z" fill="white"/>
<path d="M40.0889 35.537C34.4754 23.3148 31.1485 15.7974 18.3741 14.759C5.59981 13.7205 18.3741 25.148 18.3741 25.148C29.6353 24.8374 35.3497 27.9573 40.0889 35.537Z" fill="white"/>
</svg>
