<svg width="46" height="40" viewBox="0 0 46 40" fill="none" xmlns="http://www.w3.org/2000/svg">
<path fill-rule="evenodd" clip-rule="evenodd" d="M44 35.8361C39.1069 29.8632 34.7617 26.4739 30.9644 25.6682C27.1671 24.8625 23.5517 24.7408 20.1182 25.303V36L4 18.5453L20.1182 2V12.167C26.4667 12.2172 31.8638 14.4948 36.3095 19C40.7553 23.5052 43.3187 29.1172 44 35.8361Z" fill="#D6D6D6" stroke="#D6D6D6" stroke-width="3" stroke-linejoin="round"/>
<path fill-rule="evenodd" clip-rule="evenodd" d="M42 37.8361C37.1069 31.8632 32.7617 28.4739 28.9644 27.6682C25.1671 26.8625 21.5517 26.7408 18.1182 27.303V38L2 20.5453L18.1182 4V14.167C24.4667 14.2172 29.8638 16.4948 34.3095 21C38.7553 25.5052 41.3187 31.1172 42 37.8361Z" fill="white" stroke="white" stroke-width="3" stroke-linejoin="round"/>
</svg>
