<svg width="42" height="39" viewBox="0 0 42 39" fill="none" xmlns="http://www.w3.org/2000/svg">
<path d="M18.4629 34.7091V1.56994C18.4629 0.670345 17.3678 0.228217 16.7432 0.875652L0.758643 17.4452C0.384906 17.8327 0.384907 18.4464 0.758644 18.8338L16.7432 35.4034C17.3678 36.0508 18.4629 35.6087 18.4629 34.7091Z" fill="#D6D6D6"/>
<path d="M40.1778 33.723C34.5643 21.5009 31.2373 13.9834 18.463 12.945C5.68868 11.9066 18.463 23.334 18.463 23.334C29.7241 23.0234 35.4385 26.1433 40.1778 33.723Z" fill="#D6D6D6"/>
<path d="M19.3741 36.5231V3.3839C19.3741 2.48431 18.279 2.04218 17.6544 2.68962L1.66978 19.2592C1.29604 19.6466 1.29604 20.2604 1.66978 20.6478L17.6544 37.2174C18.279 37.8648 19.3741 37.4227 19.3741 36.5231Z" fill="white"/>
<path d="M41.0889 35.537C35.4754 23.3148 32.1485 15.7974 19.3741 14.759C6.59981 13.7205 19.3741 25.148 19.3741 25.148C30.6353 24.8374 36.3497 27.9573 41.0889 35.537Z" fill="white"/>
</svg>
