<svg width="40" height="40" viewBox="0 0 40 40" fill="none" xmlns="http://www.w3.org/2000/svg">
<ellipse cx="20" cy="9.14286" rx="5.14286" ry="9.14286" fill="url(#paint0_linear_28_7)"/>
<ellipse cx="12.3873" cy="12.3872" rx="5.14286" ry="9.14286" transform="rotate(-45 12.3873 12.3872)" fill="url(#paint1_linear_28_7)"/>
<ellipse cx="9.14286" cy="20" rx="5.14286" ry="9.14286" transform="rotate(-90 9.14286 20)" fill="url(#paint2_linear_28_7)"/>
<ellipse cx="12.3873" cy="27.8158" rx="5.14286" ry="9.14286" transform="rotate(-135 12.3873 27.8158)" fill="url(#paint3_linear_28_7)"/>
<ellipse cx="20" cy="30.8571" rx="5.14286" ry="9.14286" transform="rotate(-180 20 30.8571)" fill="url(#paint4_linear_28_7)"/>
<ellipse cx="27.2444" cy="27.8158" rx="5.14286" ry="9.14286" transform="rotate(135 27.2444 27.8158)" fill="url(#paint5_linear_28_7)"/>
<ellipse cx="30.8571" cy="20" rx="5.14286" ry="9.14286" transform="rotate(90 30.8571 20)" fill="url(#paint6_linear_28_7)"/>
<ellipse cx="27.8159" cy="12.3872" rx="5.14286" ry="9.14286" transform="rotate(-135 27.8159 12.3872)" fill="url(#paint7_linear_28_7)"/>
<path fill-rule="evenodd" clip-rule="evenodd" d="M20 18.2857C22.8403 18.2857 25.1429 14.1923 25.1429 9.14286C25.1429 4.0934 22.8403 0 20 0V18.2857Z" fill="url(#paint8_linear_28_7)"/>
<circle cx="19.4286" cy="20" r="5.14286" fill="url(#paint9_linear_28_7)"/>
<defs>
<linearGradient id="paint0_linear_28_7" x1="20" y1="0" x2="20" y2="18.2857" gradientUnits="userSpaceOnUse">
<stop stop-color="#8C52FF"/>
<stop offset="1" stop-color="#543199"/>
</linearGradient>
<linearGradient id="paint1_linear_28_7" x1="12.3873" y1="3.24439" x2="12.3873" y2="21.5301" gradientUnits="userSpaceOnUse">
<stop stop-color="#B48EFF"/>
<stop offset="1" stop-color="#8C52FF"/>
</linearGradient>
<linearGradient id="paint2_linear_28_7" x1="14.2857" y1="20" x2="4" y2="20" gradientUnits="userSpaceOnUse">
<stop stop-color="#DA3C78"/>
<stop offset="1" stop-color="#742040"/>
</linearGradient>
<linearGradient id="paint3_linear_28_7" x1="17.5301" y1="27.8158" x2="7.24441" y2="27.8158" gradientUnits="userSpaceOnUse">
<stop stop-color="#0A00D0"/>
<stop offset="1" stop-color="#05006A"/>
</linearGradient>
<linearGradient id="paint4_linear_28_7" x1="20" y1="40" x2="20" y2="21.7143" gradientUnits="userSpaceOnUse">
<stop stop-color="#0093CE"/>
<stop offset="1" stop-color="#004A68"/>
</linearGradient>
<linearGradient id="paint5_linear_28_7" x1="22.1016" y1="27.8158" x2="32.3873" y2="27.8158" gradientUnits="userSpaceOnUse">
<stop stop-color="#C700D5"/>
<stop offset="1" stop-color="#68006F"/>
</linearGradient>
<linearGradient id="paint6_linear_28_7" x1="25.7143" y1="20" x2="36" y2="20" gradientUnits="userSpaceOnUse">
<stop stop-color="#E31454"/>
<stop offset="1" stop-color="#7D0B2E"/>
</linearGradient>
<linearGradient id="paint7_linear_28_7" x1="32.9587" y1="12.3872" x2="22.673" y2="12.3872" gradientUnits="userSpaceOnUse">
<stop stop-color="#CC0178"/>
<stop offset="1" stop-color="#66013C"/>
</linearGradient>
<linearGradient id="paint8_linear_28_7" x1="20" y1="0" x2="20" y2="18.2857" gradientUnits="userSpaceOnUse">
<stop stop-color="#8C52FF"/>
<stop offset="1" stop-color="#543199"/>
</linearGradient>
<linearGradient id="paint9_linear_28_7" x1="19.4286" y1="14.8571" x2="19.4286" y2="25.1429" gradientUnits="userSpaceOnUse">
<stop stop-color="#FF8AB7"/>
<stop offset="1" stop-color="#DA3C78"/>
</linearGradient>
</defs>
</svg>
