<svg width="41" height="38" viewBox="0 0 41 38" fill="none" xmlns="http://www.w3.org/2000/svg">
<path fill-rule="evenodd" clip-rule="evenodd" d="M0.816284 2C0.816284 0.895433 1.71171 0 2.81628 0H22.4526C23.5572 0 24.4526 0.895431 24.4526 2V8.76829C24.4526 9.04443 24.2288 9.26829 23.9526 9.26829H22.4646C22.1885 9.26829 21.9646 9.04443 21.9646 8.76829V4.70732C21.9646 4.15503 21.5169 3.70732 20.9646 3.70732H4.30435C3.75207 3.70732 3.30435 4.15503 3.30435 4.70732V32.3659C3.30435 32.9181 3.75207 33.3659 4.30435 33.3659H20.9646C21.5169 33.3659 21.9646 32.9181 21.9646 32.3658V28.3049C21.9646 28.0287 22.1885 27.8049 22.4646 27.8049H23.9526C24.2288 27.8049 24.4526 28.0287 24.4526 28.3049V35.0732C24.4526 36.1777 23.5572 37.0732 22.4526 37.0732H2.81628C1.71172 37.0732 0.816284 36.1777 0.816284 35.0732V2Z" fill="#D6D6D6"/>
<path fill-rule="evenodd" clip-rule="evenodd" d="M0 2.92684C0 1.82227 0.895431 0.926834 2 0.926834H21.6364C22.7409 0.926834 23.6364 1.82226 23.6364 2.92683V9.69513C23.6364 9.97127 23.4125 10.1951 23.1364 10.1951H21.6484C21.3722 10.1951 21.1484 9.97127 21.1484 9.69513V5.63415C21.1484 5.08187 20.7006 4.63415 20.1484 4.63415H3.48807C2.93578 4.63415 2.48807 5.08187 2.48807 5.63415V33.2927C2.48807 33.845 2.93578 34.2927 3.48807 34.2927H20.1484C20.7006 34.2927 21.1484 33.845 21.1484 33.2927V29.2317C21.1484 28.9556 21.3722 28.7317 21.6484 28.7317H23.1364C23.4125 28.7317 23.6364 28.9556 23.6364 29.2317V36C23.6364 37.1046 22.7409 38 21.6364 38H2C0.895431 38 0 37.1046 0 36V2.92684Z" fill="white"/>
<path d="M40.7072 19.2437C41.0977 18.8532 41.0977 18.22 40.7072 17.8295L34.3432 11.4655C33.9527 11.075 33.3195 11.075 32.929 11.4655C32.5385 11.856 32.5385 12.4892 32.929 12.8797L38.5858 18.5366L32.929 24.1934C32.5385 24.584 32.5385 25.2171 32.929 25.6077C33.3195 25.9982 33.9527 25.9982 34.3432 25.6077L40.7072 19.2437ZM15.5103 19.5366H40V17.5366H15.5103V19.5366Z" fill="#D6D6D6"/>
<path d="M39.8908 20.1705C40.2813 19.78 40.2813 19.1468 39.8908 18.7563L33.5268 12.3923C33.1363 12.0018 32.5031 12.0018 32.1126 12.3923C31.7221 12.7829 31.7221 13.416 32.1126 13.8066L37.7694 19.4634L32.1126 25.1203C31.7221 25.5108 31.7221 26.144 32.1126 26.5345C32.5031 26.925 33.1363 26.925 33.5268 26.5345L39.8908 20.1705ZM14.6938 20.4634H39.1836V18.4634H14.6938V20.4634Z" fill="white"/>
</svg>
