<svg width="42" height="42" viewBox="0 0 42 42" fill="none" xmlns="http://www.w3.org/2000/svg">
<path d="M26.1667 11.6667C28.4678 11.6667 30.3333 9.80118 30.3333 7.50001C30.3333 5.19883 28.4678 3.33334 26.1667 3.33334C23.8655 3.33334 22 5.19883 22 7.50001C22 9.80118 23.8655 11.6667 26.1667 11.6667Z" fill="#D6D6D6" stroke="#D6D6D6" stroke-width="4" stroke-miterlimit="2"/>
<path d="M22.3167 15.7585L18.6667 22.5002L24.7584 27.5168C25.0167 27.7168 25.2 27.9918 25.3084 28.3002L27.8334 36.6668" stroke="#D6D6D6" stroke-width="4" stroke-miterlimit="2" stroke-linecap="round" stroke-linejoin="round"/>
<path d="M18.6666 22.5L14.0916 28.8667C13.6416 29.525 12.7916 29.775 12.0583 29.4667L5.33331 26.6667" stroke="#D6D6D6" stroke-width="4" stroke-miterlimit="2" stroke-linecap="round" stroke-linejoin="round"/>
<path d="M37 19.9999H31.1666C30.8666 19.9999 30.5666 19.9249 30.3 19.7749L27.625 18.2666C24.2833 16.3083 20.625 14.9666 16.8166 14.2833L14.1333 13.8083C13.7583 13.7416 13.3666 13.8083 13.0333 13.9916L7.83331 16.6666" stroke="#D6D6D6" stroke-width="4" stroke-miterlimit="2" stroke-linecap="round" stroke-linejoin="round"/>
<path d="M24.1667 13.6667C26.4678 13.6667 28.3333 11.8012 28.3333 9.50001C28.3333 7.19883 26.4678 5.33334 24.1667 5.33334C21.8655 5.33334 20 7.19883 20 9.50001C20 11.8012 21.8655 13.6667 24.1667 13.6667Z" fill="white" stroke="white" stroke-width="4" stroke-miterlimit="2"/>
<path d="M20.3167 17.7585L16.6667 24.5002L22.7584 29.5168C23.0167 29.7168 23.2 29.9918 23.3084 30.3002L25.8334 38.6668" stroke="white" stroke-width="4" stroke-miterlimit="2" stroke-linecap="round" stroke-linejoin="round"/>
<path d="M16.6666 24.5L12.0916 30.8667C11.6416 31.525 10.7916 31.775 10.0583 31.4667L3.33331 28.6667" stroke="white" stroke-width="4" stroke-miterlimit="2" stroke-linecap="round" stroke-linejoin="round"/>
<path d="M35 21.9999H29.1666C28.8666 21.9999 28.5666 21.9249 28.3 21.7749L25.625 20.2666C22.2833 18.3083 18.625 16.9666 14.8166 16.2833L12.1333 15.8083C11.7583 15.7416 11.3666 15.8083 11.0333 15.9916L5.83331 18.6666" stroke="white" stroke-width="4" stroke-miterlimit="2" stroke-linecap="round" stroke-linejoin="round"/>
</svg>
