<svg width="42" height="38" viewBox="0 0 42 38" fill="none" xmlns="http://www.w3.org/2000/svg">
<path fill-rule="evenodd" clip-rule="evenodd" d="M0.816284 3C0.816284 1.34315 2.15943 0 3.81628 0H22C23.6569 0 25 1.34315 25 3V7C25 8.10457 24.1046 9 23 9C21.8954 9 21 8.10457 21 7V5C21 4.44772 20.5523 4 20 4H6C5.44772 4 5 4.44772 5 5V32C5 32.5523 5.44772 33 6 33H20C20.5523 33 21 32.5523 21 32V30C21 28.8954 21.8954 28 23 28C24.1046 28 25 28.8954 25 30V34.0732C25 35.73 23.6569 37.0732 22 37.0732H3.81628C2.15943 37.0732 0.816284 35.73 0.816284 34.0732V3Z" fill="#D6D6D6"/>
<path fill-rule="evenodd" clip-rule="evenodd" d="M0 3.92684C0 2.26998 1.34315 0.926834 3 0.926834H21C22.6569 0.926834 24 2.26998 24 3.92683V8C24 9.10457 23.1046 10 22 10C20.8954 10 20 9.10457 20 8V6.5C20 5.67157 19.3284 5 18.5 5H5.5C4.67157 5 4 5.67157 4 6.5V32.5C4 33.3284 4.67157 34 5.5 34H18.5C19.3284 34 20 33.3284 20 32.5V31C20 29.8954 20.8954 29 22 29C23.1046 29 24 29.8954 24 31V35C24 36.6569 22.6569 38 21 38H3C1.34315 38 0 36.6569 0 35V3.92684Z" fill="white"/>
<rect x="14" y="17" width="5" height="3" rx="1.5" fill="#D6D6D6"/>
<path d="M40.7545 19.5607C41.3403 18.9749 41.3403 18.0251 40.7545 17.4393L31.2086 7.8934C30.6228 7.30761 29.673 7.30761 29.0872 7.8934C28.5015 8.47919 28.5015 9.42893 29.0872 10.0147L37.5725 18.5L29.0872 26.9853C28.5015 27.5711 28.5015 28.5208 29.0872 29.1066C29.673 29.6924 30.6228 29.6924 31.2086 29.1066L40.7545 19.5607ZM15.6938 20H39.6938V17H15.6938V20Z" fill="#D6D6D6"/>
<path d="M39.7545 20.5607C40.3403 19.9749 40.3403 19.0251 39.7545 18.4393L30.2086 8.8934C29.6228 8.30761 28.673 8.30761 28.0872 8.8934C27.5015 9.47919 27.5015 10.4289 28.0872 11.0147L36.5725 19.5L28.0872 27.9853C27.5015 28.5711 27.5015 29.5208 28.0872 30.1066C28.673 30.6924 29.6228 30.6924 30.2086 30.1066L39.7545 20.5607ZM14.6938 21H38.6938V18H14.6938V21Z" fill="white"/>
<rect x="13" y="18" width="5" height="3" rx="1.5" fill="white"/>
</svg>
