<svg xmlns="http://www.w3.org/2000/svg" xmlns:xlink="http://www.w3.org/1999/xlink" width="500" zoomAndPan="magnify" viewBox="0 0 375 374.999991" height="500" preserveAspectRatio="xMidYMid meet" version="1.0"><defs><clipPath id="0ec868faf7"><path d="M 112.5 147 L 181 147 L 181 238 L 112.5 238 Z M 112.5 147 " clip-rule="nonzero"/></clipPath></defs><path fill="#ffffff" d="M 250.328125 145.636719 C 247.328125 143.816406 244.75 141.578125 241.832031 139.632812 C 240.734375 138.914062 239.550781 138.28125 238.28125 137.941406 C 236.464844 137.476562 234.605469 137.691406 233 136.507812 C 232.363281 136.042969 231.476562 136.546875 231.265625 137.183594 C 230.210938 140.480469 232.617188 143.816406 234.519531 146.355469 C 236.800781 149.355469 239.675781 151.847656 242.890625 153.835938 C 243.226562 154.046875 243.523438 154.046875 243.820312 154.003906 C 246.945312 156.414062 251.300781 158.992188 254.425781 156.285156 C 258.78125 152.523438 253.496094 147.578125 250.328125 145.636719 Z M 246.820312 154.425781 C 246.101562 154.089844 245.425781 153.707031 244.75 153.285156 C 245.042969 152.734375 245.003906 151.976562 244.285156 151.550781 C 241.832031 150.074219 239.59375 148.339844 237.691406 146.183594 C 236.253906 144.578125 233.84375 141.789062 233.507812 139.296875 C 234.859375 139.71875 236.253906 139.675781 237.773438 139.972656 C 240.140625 140.4375 242.210938 141.832031 244.15625 143.183594 C 246.3125 144.664062 248.296875 146.394531 250.285156 148.128906 C 251.847656 149.480469 254.300781 151.425781 253.667969 153.792969 C 253.582031 154.171875 253.414062 154.511719 253.203125 154.765625 C 252.820312 154.933594 252.355469 154.976562 251.933594 154.933594 C 251.554688 154.890625 251.34375 155.273438 251.382812 155.566406 C 249.777344 155.652344 247.875 154.933594 246.820312 154.425781 Z M 144.917969 217.105469 C 144.324219 215.375 143.183594 213.808594 141.746094 212.921875 C 141.578125 212.796875 141.410156 212.796875 141.242188 212.835938 C 138.703125 210.554688 136.253906 208.230469 133.886719 205.777344 C 130.503906 202.269531 127.25 198.59375 124.503906 194.578125 C 122.769531 197.242188 121.207031 199.945312 119.855469 202.734375 C 120.867188 199.398438 122.050781 196.101562 123.363281 192.847656 C 123.65625 192.128906 122.558594 191.789062 122.222656 192.464844 C 120.109375 196.902344 118.375 201.46875 116.980469 206.203125 C 116.851562 205.90625 116.304688 205.820312 116.175781 206.242188 C 114.992188 209.625 114.191406 213.089844 114.023438 216.683594 C 113.9375 218.753906 113.683594 221.925781 114.738281 223.996094 C 114.824219 224.25 114.953125 224.503906 115.078125 224.714844 C 115.121094 224.714844 115.121094 224.671875 115.164062 224.671875 C 115.203125 224.714844 115.246094 224.757812 115.289062 224.839844 C 116.683594 226.53125 119.179688 226.152344 120.65625 224.796875 C 121.796875 223.785156 122.515625 222.390625 123.320312 221.164062 C 123.699219 220.53125 124.082031 219.9375 124.460938 219.304688 C 124.882812 221.585938 125.601562 223.867188 126.828125 225.515625 C 127.714844 226.699219 129.195312 227.125 130.292969 226.53125 C 130.460938 226.617188 130.675781 226.699219 130.84375 226.785156 C 131.140625 226.910156 131.605469 226.742188 131.773438 226.445312 C 131.816406 226.320312 131.898438 226.234375 131.941406 226.109375 C 133.210938 225.515625 134.222656 224.292969 134.476562 222.769531 C 134.5625 222.261719 134.308594 221.882812 133.972656 221.671875 C 134.011719 221.542969 134.054688 221.417969 134.097656 221.289062 C 134.140625 221.332031 134.140625 221.332031 134.183594 221.375 C 134.648438 221.839844 135.492188 221.714844 135.703125 221.078125 C 135.746094 221.164062 135.789062 221.207031 135.832031 221.289062 C 137.054688 222.855469 138.578125 224.585938 140.734375 224.714844 C 142.59375 224.839844 144.074219 223.53125 144.832031 221.925781 C 145.085938 221.332031 145.253906 220.742188 145.296875 220.066406 C 145.972656 220.066406 146.523438 219.050781 146.015625 218.417969 C 145.636719 217.953125 145.253906 217.527344 144.917969 217.105469 Z M 119.09375 222.726562 C 118.925781 222.855469 118.925781 223.109375 119.007812 223.320312 C 118.964844 223.363281 118.925781 223.363281 118.839844 223.402344 C 117.910156 223.828125 117.277344 223.613281 116.851562 223.191406 C 117.570312 222.472656 118.207031 221.714844 118.882812 220.953125 C 118.925781 220.910156 118.925781 220.867188 118.964844 220.867188 C 118.882812 221.332031 119.261719 221.796875 119.683594 221.925781 C 119.515625 222.179688 119.304688 222.433594 119.09375 222.726562 Z M 127.96875 222.472656 C 126.742188 220.824219 126.234375 218.710938 126.066406 216.726562 C 126.953125 217.105469 127.671875 217.824219 127.800781 218.796875 C 128.011719 220.65625 128.984375 222.558594 130.335938 223.785156 C 129.53125 223.828125 128.601562 223.320312 127.96875 222.472656 Z M 143.140625 219.855469 C 143.015625 220.320312 142.847656 220.742188 142.59375 221.164062 C 142.804688 220.023438 142.847656 218.796875 142.761719 217.613281 C 142.972656 217.910156 143.183594 218.164062 143.394531 218.417969 C 143.394531 218.882812 143.3125 219.386719 143.140625 219.855469 Z M 259.753906 222.390625 C 259.5 220.53125 259.203125 218.710938 258.824219 216.894531 C 258.0625 213.386719 257.175781 209.5 255.230469 206.414062 C 254.425781 205.101562 253.371094 203.960938 252.058594 203.117188 C 251.933594 203.03125 251.808594 202.988281 251.679688 202.90625 C 251.214844 201.890625 250.707031 200.875 250.117188 199.90625 C 249.652344 199.101562 248.847656 197.285156 247.75 197.113281 C 245.507812 196.777344 247.117188 199.566406 247.707031 200.453125 C 247.621094 200.410156 247.539062 200.371094 247.453125 200.328125 C 247.199219 199.902344 246.902344 199.480469 246.652344 199.058594 C 246.058594 198.085938 244.539062 198.933594 245.085938 199.945312 C 245.339844 200.371094 245.59375 200.792969 245.847656 201.214844 C 245.71875 201.679688 245.847656 202.1875 246.144531 202.566406 C 246.4375 202.949219 246.777344 203.242188 247.15625 203.539062 C 247.367188 203.960938 247.621094 204.46875 247.917969 204.847656 C 246.691406 203.328125 245.507812 201.804688 244.410156 200.242188 C 239.804688 204.257812 234.730469 207.722656 229.617188 211.019531 C 228.433594 211.78125 227.25 212.5 226.066406 213.261719 C 225.941406 213.21875 225.8125 213.175781 225.6875 213.261719 C 223.109375 214.824219 220.742188 217.023438 219.894531 220.066406 C 219.21875 222.558594 219.855469 225.644531 221.96875 227.292969 C 225.222656 229.828125 230.84375 228.390625 233.125 224.96875 C 233.210938 225.09375 233.292969 225.261719 233.421875 225.390625 C 233.464844 225.476562 233.546875 225.476562 233.632812 225.476562 C 233.71875 225.558594 233.757812 225.6875 233.800781 225.769531 C 233.421875 227.460938 233.464844 229.277344 233.800781 231.011719 C 233.210938 229.871094 233 228.476562 233.507812 226.871094 C 233.71875 226.234375 232.746094 225.980469 232.492188 226.617188 C 230.925781 230.378906 232.828125 233.503906 235.746094 235.152344 C 236.378906 235.703125 237.140625 236 237.902344 236.082031 C 239.167969 236.464844 240.5625 236.589844 241.875 236.421875 C 247.328125 235.703125 252.609375 230.800781 250.117188 225.011719 C 250.117188 224.96875 250.074219 224.96875 250.074219 224.925781 C 250.371094 224.757812 250.75 224.757812 250.917969 225.136719 C 251.636719 226.617188 252.355469 228.265625 253.707031 229.277344 C 254.722656 230.039062 256.160156 230.421875 257.300781 229.785156 C 257.34375 229.488281 257.34375 229.195312 257.386719 228.898438 C 258.273438 228.773438 259.160156 228.136719 259.582031 227.207031 C 260.261719 225.6875 259.921875 223.910156 259.753906 222.390625 Z M 247.960938 200.582031 C 247.917969 200.539062 247.832031 200.496094 247.792969 200.453125 C 247.539062 199.988281 246.863281 198.550781 247.285156 198.296875 C 247.410156 198.214844 248.128906 199.4375 248.511719 200.117188 C 248.511719 200.117188 248.511719 200.15625 248.511719 200.15625 C 248.550781 200.582031 248.636719 200.960938 248.679688 201.339844 C 248.46875 201.085938 248.257812 200.835938 247.960938 200.582031 Z M 221.757812 220.445312 C 221.671875 221.671875 221.796875 222.855469 222.179688 223.867188 C 221.542969 222.769531 221.460938 221.585938 221.757812 220.445312 Z M 224.96875 223.953125 C 223.617188 223.109375 223.320312 221.460938 223.488281 219.8125 C 223.65625 220.742188 223.953125 221.628906 224.335938 222.390625 C 224.628906 223.023438 224.96875 223.613281 225.304688 224.082031 C 225.222656 224.039062 225.09375 223.996094 224.96875 223.953125 Z M 248.046875 205.019531 C 248.214844 205.230469 248.425781 205.398438 248.636719 205.484375 C 248.804688 205.777344 248.933594 206.03125 249.101562 206.328125 C 248.765625 205.90625 248.425781 205.484375 248.046875 205.019531 Z M 245.171875 233.082031 C 244.539062 233.464844 243.859375 233.757812 243.183594 233.96875 C 244.621094 232.28125 245.296875 229.660156 246.015625 227.714844 C 246.183594 227.25 246.4375 226.871094 246.734375 226.574219 C 246.523438 228.6875 246.183594 230.460938 244.917969 232.363281 C 244.707031 232.660156 244.875 232.957031 245.171875 233.082031 Z M 246.101562 232.449219 C 247.199219 230.84375 247.875 229.109375 248.128906 227.125 C 248.171875 226.699219 248.171875 226.320312 248.257812 225.980469 C 248.46875 226.234375 248.847656 226.320312 249.144531 226.152344 C 249.398438 228.773438 248.085938 230.96875 246.101562 232.449219 Z M 256.035156 216.558594 C 255.863281 216.21875 255.695312 215.878906 255.527344 215.585938 C 254.890625 213.851562 254.171875 212.117188 253.414062 210.386719 C 252.695312 208.824219 251.933594 207.300781 251.171875 205.777344 C 251.257812 205.820312 251.34375 205.863281 251.425781 205.90625 C 252.3125 207.679688 253.160156 209.5 254.046875 211.273438 C 254.636719 212.371094 255.273438 213.554688 255.820312 214.738281 C 256.160156 215.964844 256.5 217.234375 256.792969 218.457031 C 256.625 217.824219 256.371094 217.191406 256.035156 216.558594 Z M 257.683594 222.980469 C 257.765625 223.363281 257.808594 223.785156 257.894531 224.164062 C 257.933594 224.417969 257.894531 225.179688 257.722656 225.898438 C 257.722656 224.882812 257.722656 223.910156 257.683594 222.980469 Z M 257.683594 222.980469 " fill-opacity="1" fill-rule="nonzero"/><path fill="#da3c78" d="M 254.808594 179.109375 C 254.511719 175.304688 252.820312 171.714844 250.453125 168.710938 C 250.160156 168.753906 249.90625 168.796875 249.609375 168.839844 C 245.339844 162.753906 238.578125 158.484375 231.011719 157.765625 C 221.039062 156.792969 210.9375 162.5 206.246094 171.25 C 205.738281 172.21875 205.738281 173.191406 206.117188 173.953125 C 206.074219 174.039062 205.992188 174.082031 205.949219 174.164062 C 205.316406 174.96875 204.511719 175.390625 203.707031 175.515625 C 203.328125 176.066406 202.992188 176.617188 202.695312 177.164062 C 202.484375 177.925781 202.273438 178.6875 202.058594 179.40625 C 204.425781 179.363281 206.835938 179.195312 209.203125 179.066406 C 209.964844 178.941406 210.683594 178.8125 211.445312 178.773438 C 212.078125 178.730469 212.375 179.488281 212.121094 179.996094 C 211.738281 180.800781 211.316406 181.5625 210.851562 182.28125 C 211.0625 182.535156 211.148438 182.914062 210.9375 183.167969 C 209.667969 184.859375 208.441406 186.546875 207.21875 188.238281 C 203.707031 193.058594 200.117188 197.875 196.058594 202.230469 C 195.972656 202.566406 195.890625 202.90625 195.804688 203.242188 C 196.863281 202.820312 197.960938 202.355469 199.015625 201.890625 C 199.101562 201.890625 199.1875 201.890625 199.269531 201.847656 C 202.441406 200.621094 205.695312 199.691406 208.992188 198.972656 C 207.933594 200.03125 206.921875 201.214844 206.074219 202.441406 C 204.765625 204.300781 203.667969 206.285156 202.609375 208.230469 C 200.835938 211.484375 199.058594 214.695312 197.328125 217.953125 C 194.789062 221.375 192.296875 224.796875 189.804688 228.222656 C 189.804688 228.308594 189.761719 228.347656 189.761719 228.433594 C 189.761719 228.433594 189.804688 228.390625 189.804688 228.390625 C 189.929688 228.179688 190.097656 227.96875 190.226562 227.800781 C 190.988281 227.460938 191.789062 227.125 192.550781 226.742188 C 192.339844 227.164062 192.085938 227.589844 191.875 227.96875 C 191.15625 228.433594 190.394531 228.855469 189.59375 229.109375 C 189.253906 230.460938 188.914062 231.855469 188.703125 233.25 C 188.703125 233.292969 188.703125 233.335938 188.664062 233.421875 C 206.160156 223.234375 224.757812 214.78125 240.734375 202.355469 C 244.496094 199.4375 248.085938 196.269531 250.792969 192.382812 C 253.496094 188.492188 255.1875 183.84375 254.808594 179.109375 Z M 209.332031 191.15625 C 208.992188 191.367188 208.695312 191.578125 208.359375 191.832031 C 208.316406 191.664062 208.273438 191.535156 208.230469 191.367188 C 208.613281 191.28125 208.992188 191.199219 209.332031 191.15625 Z M 211.949219 199.144531 C 209.964844 201.59375 207.976562 204.089844 205.992188 206.582031 C 204.808594 208.105469 203.625 209.667969 202.441406 211.1875 C 202.652344 210.765625 202.863281 210.386719 203.117188 209.964844 C 204.171875 207.976562 205.230469 205.992188 206.5 204.128906 C 207.894531 202.015625 209.542969 200.117188 211.484375 198.46875 C 211.695312 198.296875 211.738281 198.042969 211.65625 197.832031 C 212.160156 198.003906 212.375 198.636719 211.949219 199.144531 Z M 225.6875 164.824219 C 223.828125 164.992188 221.96875 165.246094 220.148438 165.628906 C 223.277344 164.019531 226.785156 163.175781 230.421875 163.386719 C 232.914062 163.515625 235.28125 164.191406 237.480469 165.246094 C 233.464844 164.0625 229.53125 164.0625 225.6875 164.824219 Z M 231.773438 202.484375 C 228.6875 205.355469 225.265625 207.890625 221.628906 210.003906 C 221.628906 209.921875 221.628906 209.792969 221.671875 209.710938 C 223.53125 208.355469 225.179688 206.625 226.703125 204.976562 C 227.167969 204.722656 227.589844 204.425781 228.011719 204.171875 C 229.785156 203.160156 231.519531 202.101562 233.253906 201.003906 C 232.789062 201.511719 232.28125 202.015625 231.773438 202.484375 Z M 239.929688 169.304688 C 240.269531 168.289062 240.097656 167.191406 239.378906 166.34375 C 240.859375 167.277344 242.171875 168.375 243.394531 169.640625 C 242.382812 168.964844 240.988281 168.753906 239.929688 169.304688 Z M 241.707031 192.464844 C 241.15625 193.015625 240.5625 193.523438 239.972656 194.03125 C 239.929688 193.859375 239.847656 193.691406 239.71875 193.523438 C 240.3125 192.71875 240.859375 191.917969 241.367188 191.070312 C 241.746094 190.605469 242.128906 190.183594 242.507812 189.71875 C 242.804688 190.5625 242.59375 191.578125 241.707031 192.464844 Z M 179.28125 233.589844 C 178.390625 232.152344 177.589844 230.671875 176.914062 229.109375 C 176.871094 229.066406 176.828125 229.023438 176.785156 228.984375 C 173.363281 223.613281 169.515625 218.5 165.332031 213.683594 C 164.316406 212.542969 163.304688 211.441406 162.246094 210.34375 C 161.78125 209.710938 161.359375 209.074219 160.894531 208.398438 C 160.175781 207.386719 159.5 206.414062 158.78125 205.398438 C 163.175781 206.75 167.234375 210.511719 172.007812 209.753906 C 171.96875 209.710938 171.925781 209.625 171.839844 209.582031 C 172.179688 209.457031 172.304688 209.035156 172.136719 208.695312 C 169.601562 203.582031 166.304688 198.933594 162.921875 194.367188 C 162.839844 194.28125 162.796875 194.199219 162.710938 194.070312 C 160.132812 189.167969 157.511719 184.351562 154.808594 179.53125 C 154.597656 179.152344 154.386719 178.773438 154.171875 178.390625 C 154.300781 178.433594 154.46875 178.433594 154.597656 178.476562 C 154.765625 178.644531 154.890625 178.8125 155.0625 178.984375 C 155.441406 179.40625 155.992188 179.109375 156.117188 178.644531 C 158.359375 178.855469 160.597656 178.644531 162.753906 178.054688 C 163.515625 178.390625 164.273438 178.6875 165.035156 178.898438 C 164.527344 176.953125 164.0625 175.011719 163.554688 173.066406 C 163.175781 172.304688 162.796875 171.585938 162.414062 170.824219 C 160.683594 166.640625 158.738281 162.582031 156.539062 158.652344 C 156.414062 158.398438 156.203125 158.316406 155.992188 158.355469 C 154.132812 155.609375 151.765625 153.242188 148.847656 151.765625 C 147.832031 151.257812 146.734375 151.214844 145.847656 151.59375 C 145.71875 151.511719 145.59375 151.46875 145.46875 151.382812 C 145.972656 150.960938 146.652344 150.664062 147.328125 150.621094 C 145.46875 149.652344 143.4375 149.015625 141.367188 148.636719 C 141.113281 149.144531 140.816406 149.566406 140.480469 149.863281 C 139.042969 149.691406 137.5625 149.734375 136.085938 149.988281 C 135.535156 149.777344 134.984375 149.609375 134.4375 149.4375 C 134.308594 149.398438 134.222656 149.398438 134.097656 149.355469 C 134.097656 149.269531 134.097656 149.226562 134.140625 149.144531 C 134.183594 148.933594 134.222656 148.722656 134.265625 148.550781 C 133.507812 148.679688 132.746094 148.804688 131.984375 149.015625 C 131.5625 149.523438 131.222656 150.074219 130.886719 150.621094 C 127.882812 151.214844 125.09375 152.90625 123.023438 155.230469 C 122.558594 155.738281 122.179688 156.285156 121.796875 156.835938 C 120.65625 157.554688 119.601562 158.441406 118.714844 159.457031 C 118.671875 159.371094 118.671875 159.289062 118.628906 159.160156 C 118.417969 159.539062 118.164062 159.921875 117.996094 160.34375 C 117.953125 160.429688 117.910156 160.46875 117.867188 160.511719 C 116.472656 162.5 115.710938 164.910156 115.839844 167.273438 C 115.5 167.570312 115.289062 168.035156 115.289062 168.671875 C 115.585938 176.910156 118.121094 184.222656 122.136719 190.773438 C 121.292969 189.804688 120.488281 188.871094 119.644531 187.902344 C 122.726562 193.691406 127.125 198.804688 131.816406 203.414062 C 132.574219 204.171875 133.335938 204.890625 134.097656 205.609375 C 133.039062 204.46875 132.070312 203.328125 131.054688 202.144531 C 137.183594 208.484375 144.496094 213.894531 151.808594 218.585938 C 151.679688 219.386719 151.933594 220.277344 152.863281 220.867188 C 155.316406 222.472656 157.808594 223.996094 160.300781 225.476562 C 164.0625 227.800781 167.867188 230.039062 171.757812 232.152344 C 171.585938 231.984375 171.417969 231.816406 171.25 231.601562 C 171.460938 231.773438 171.671875 231.941406 171.925781 232.152344 C 172.8125 232.828125 173.828125 233.886719 174.96875 234.054688 C 175.09375 234.054688 175.179688 234.054688 175.304688 234.097656 C 175.898438 234.394531 176.488281 234.730469 177.082031 235.027344 C 177.632812 235.324219 178.136719 235.578125 178.6875 235.871094 C 178.984375 235.324219 179.320312 234.730469 179.617188 234.179688 C 179.53125 234.097656 179.40625 233.84375 179.28125 233.589844 Z M 136.421875 178.054688 C 136.378906 177.882812 136.335938 177.714844 136.296875 177.503906 C 136.464844 177.460938 136.632812 177.417969 136.761719 177.335938 C 137.054688 178.09375 137.308594 178.898438 137.519531 179.660156 C 137.140625 179.109375 136.761719 178.601562 136.421875 178.054688 Z M 170.320312 207.851562 C 169.980469 207.425781 169.644531 207.046875 169.304688 206.625 C 169.21875 206.496094 169.136719 206.371094 169.09375 206.242188 C 168.417969 205.0625 167.867188 203.878906 167.277344 202.652344 C 168.332031 204.34375 169.347656 206.074219 170.320312 207.851562 Z M 152.484375 177.96875 C 153.835938 180.378906 155.230469 182.828125 156.539062 185.238281 C 155.398438 183.503906 154.257812 181.730469 153.203125 179.914062 C 152.777344 179.238281 152.398438 178.519531 152.019531 177.800781 C 152.230469 177.882812 152.355469 177.925781 152.484375 177.96875 Z M 149.777344 173.191406 C 150.371094 174.207031 150.960938 175.261719 151.554688 176.277344 C 151.425781 176.234375 151.34375 176.277344 151.257812 176.277344 C 150.707031 175.261719 150.160156 174.207031 149.652344 173.148438 C 149.695312 173.191406 149.734375 173.234375 149.777344 173.191406 Z M 135.492188 202.734375 C 134.941406 202.1875 134.394531 201.636719 133.84375 201.085938 C 133.972656 201.003906 134.097656 200.875 134.183594 200.707031 C 134.773438 201.425781 135.367188 202.144531 136 202.863281 C 135.832031 202.734375 135.660156 202.734375 135.492188 202.734375 Z M 157.597656 190.4375 C 153.960938 185.40625 150.328125 180.167969 148.296875 174.292969 C 148.214844 174.039062 148.257812 173.828125 148.425781 173.65625 C 150.75 178.347656 153.414062 182.914062 156.328125 187.265625 C 158.0625 189.84375 159.878906 192.296875 161.695312 194.789062 C 162.585938 196.523438 163.472656 198.257812 164.402344 199.945312 C 163.894531 199.226562 163.429688 198.507812 162.921875 197.792969 C 161.191406 195.253906 159.371094 192.847656 157.597656 190.4375 Z M 158.1875 208.398438 C 158.484375 208.105469 158.441406 207.46875 157.933594 207.34375 C 157.808594 207.300781 157.640625 207.300781 157.554688 207.34375 C 157.34375 207.003906 157.175781 206.710938 156.964844 206.371094 C 156.75 205.992188 156.878906 205.566406 157.21875 205.355469 C 157.429688 205.695312 157.683594 206.03125 157.894531 206.328125 C 158.484375 207.175781 159.078125 208.019531 159.667969 208.824219 C 159.542969 209.035156 159.542969 209.328125 159.753906 209.539062 C 160.261719 210.089844 160.808594 210.640625 161.316406 211.1875 C 161.949219 212.117188 162.625 213.050781 163.261719 213.980469 C 164.445312 215.628906 165.585938 217.316406 166.769531 218.964844 C 163.640625 215.710938 160.640625 212.246094 158.1875 208.398438 Z M 172.007812 224.292969 C 171.460938 223.53125 170.910156 222.726562 170.363281 221.96875 C 170.996094 222.8125 171.628906 223.65625 172.222656 224.546875 C 172.179688 224.417969 172.09375 224.332031 172.007812 224.292969 Z M 172.007812 224.292969 " fill-opacity="1" fill-rule="nonzero"/><path fill="#000000" d="M 236.210938 148.507812 C 238.027344 150.285156 240.015625 151.890625 242.085938 153.371094 C 244.15625 154.847656 246.3125 156.285156 248.679688 157.175781 C 250.835938 158.019531 253.496094 158.355469 255.609375 157.175781 C 256.625 156.582031 257.46875 155.652344 257.597656 154.46875 C 257.765625 153.160156 256.964844 151.976562 256.203125 151.003906 C 254.976562 149.3125 253.496094 147.792969 251.847656 146.523438 C 251.808594 146.4375 251.722656 146.3125 251.636719 146.226562 C 247.285156 143.015625 242.507812 140.351562 237.480469 138.28125 C 236.335938 137.816406 235.195312 137.308594 234.011719 137.054688 C 233.039062 136.84375 231.984375 136.757812 231.097656 137.308594 C 229.066406 138.621094 230.082031 141.324219 231.179688 142.886719 C 232.660156 144.917969 234.4375 146.777344 236.210938 148.507812 Z M 231.476562 138.621094 C 232.027344 137.984375 233 138.070312 233.757812 138.28125 C 234.816406 138.535156 235.871094 139 236.886719 139.378906 C 241.242188 141.113281 245.425781 143.351562 249.269531 146.058594 C 249.3125 146.183594 249.398438 146.269531 249.523438 146.355469 C 251.382812 147.578125 253.074219 149.058594 254.511719 150.792969 C 255.144531 151.550781 255.90625 152.441406 256.246094 153.371094 C 256.582031 154.300781 256.246094 155.101562 255.527344 155.695312 C 253.878906 157.046875 251.382812 156.75 249.480469 156.074219 C 247.328125 155.355469 245.382812 154.046875 243.523438 152.777344 C 239.761719 150.199219 236.378906 147.113281 233.464844 143.605469 C 232.789062 142.804688 232.109375 142 231.644531 141.070312 C 231.265625 140.4375 230.886719 139.339844 231.476562 138.621094 Z M 231.476562 138.621094 " fill-opacity="1" fill-rule="nonzero"/><path fill="#000000" d="M 247.367188 153.03125 C 248.085938 153.328125 248.847656 153.625 249.609375 153.878906 C 250.371094 154.128906 251.171875 154.425781 251.976562 154.425781 C 252.695312 154.425781 253.414062 154.046875 253.707031 153.328125 C 254.003906 152.566406 253.539062 151.933594 253.03125 151.382812 C 250.707031 148.847656 247.960938 146.734375 245.042969 144.875 C 241.707031 142.761719 238.15625 140.984375 234.648438 139.253906 C 234.308594 139.085938 233.972656 139.253906 233.800781 139.507812 C 233.335938 139.421875 232.789062 139.886719 233.125 140.4375 C 236.335938 146.058594 241.410156 150.496094 247.367188 153.03125 Z M 249.988281 150.15625 C 250.582031 150.707031 251.128906 151.257812 251.679688 151.804688 C 251.976562 152.101562 253.03125 152.949219 252.101562 153.117188 C 251.46875 153.242188 250.625 152.863281 249.988281 152.652344 C 249.3125 152.441406 248.636719 152.1875 247.960938 151.890625 C 245.253906 150.75 242.675781 149.1875 240.4375 147.285156 C 238.199219 145.382812 236.253906 143.140625 234.648438 140.648438 C 240.097656 143.351562 245.550781 146.101562 249.988281 150.15625 Z M 249.988281 150.15625 " fill-opacity="1" fill-rule="nonzero"/><path fill="#000000" d="M 256.035156 205.441406 C 253.960938 202.058594 251.554688 198.890625 248.890625 195.972656 C 248.847656 195.929688 248.847656 195.929688 248.804688 195.890625 C 252.019531 192.296875 254.511719 188.070312 255.230469 183.25 C 256.160156 177.164062 253.792969 171.332031 249.652344 166.894531 C 245.425781 162.332031 239.59375 159.414062 233.464844 158.652344 C 228.136719 157.976562 222.855469 159.160156 218.164062 161.652344 C 216.601562 162.5 215.121094 163.429688 213.640625 164.445312 C 211.148438 166.132812 208.90625 168.078125 206.921875 170.277344 C 204.214844 172.898438 202.101562 176.066406 200.625 179.574219 C 200.496094 179.914062 200.75 180.25 201.046875 180.335938 C 201.128906 180.378906 201.214844 180.378906 201.257812 180.335938 C 201.34375 180.421875 201.425781 180.503906 201.554688 180.503906 C 201.511719 180.671875 201.425781 180.84375 201.382812 181.054688 C 201.46875 180.886719 201.554688 180.714844 201.636719 180.546875 C 201.679688 180.546875 201.722656 180.546875 201.765625 180.546875 C 205.863281 179.996094 210.007812 179.828125 214.148438 179.953125 C 208.0625 186.082031 202.3125 192.550781 196.902344 199.269531 C 195.296875 201.257812 193.734375 203.285156 192.171875 205.3125 C 191.746094 205.863281 192.507812 206.457031 193.015625 206.203125 C 197.15625 204.128906 201.46875 202.355469 205.863281 200.960938 C 199.734375 208.863281 194.453125 217.445312 190.183594 226.488281 C 188.875 229.195312 187.691406 231.984375 186.589844 234.773438 C 186.296875 235.535156 187.519531 235.871094 187.816406 235.113281 C 187.902344 234.941406 187.945312 234.773438 188.027344 234.5625 C 196.226562 229.742188 204.636719 225.347656 212.964844 220.742188 C 215.035156 219.601562 217.105469 218.417969 219.179688 217.234375 C 217.65625 219.9375 217.65625 223.445312 219.179688 226.152344 C 220.867188 229.109375 224.25 230.503906 227.546875 229.996094 C 228.644531 229.828125 229.746094 229.40625 230.675781 228.8125 C 230.335938 232.449219 232.789062 236.125 236.253906 237.351562 C 240.691406 238.957031 245.636719 236.886719 248.296875 233.210938 C 249.523438 231.519531 250.285156 229.574219 250.707031 227.546875 C 251.933594 229.660156 253.667969 231.5625 256.285156 231.351562 C 257.933594 231.222656 259.035156 230.125 259.835938 228.773438 C 260.640625 227.375 261.191406 225.8125 261.445312 224.207031 C 262.5 217.527344 259.414062 210.9375 256.035156 205.441406 Z M 217.277344 216.9375 C 207.851562 222.261719 198.214844 227.25 188.875 232.660156 C 192.59375 223.785156 197.285156 215.289062 202.777344 207.386719 C 204.46875 204.933594 206.246094 202.566406 208.105469 200.242188 C 208.484375 199.777344 208.1875 198.972656 207.511719 199.1875 C 203.203125 200.496094 198.976562 202.101562 194.875 204.003906 C 199.863281 197.539062 205.1875 191.324219 210.808594 185.40625 C 212.542969 183.546875 214.316406 181.730469 216.09375 179.953125 C 216.515625 179.53125 216.175781 178.898438 215.628906 178.855469 C 211.191406 178.601562 206.75 178.773438 202.3125 179.320312 C 203.792969 176.445312 205.609375 173.742188 207.765625 171.332031 C 208.527344 170.570312 209.371094 169.855469 210.21875 169.175781 C 210.429688 169.007812 210.472656 168.839844 210.429688 168.628906 C 211.65625 167.527344 212.921875 166.515625 214.273438 165.585938 C 217.824219 163.21875 221.503906 161.1875 225.6875 160.300781 C 231.5625 159.074219 237.816406 160.21875 242.972656 163.261719 C 248.046875 166.21875 252.355469 171.078125 253.75 176.871094 C 255.273438 183.292969 252.441406 189.761719 248.296875 194.578125 C 246.183594 197.074219 243.691406 199.226562 241.113281 201.300781 C 238.621094 203.285156 236.085938 205.144531 233.464844 206.921875 C 228.265625 210.46875 222.8125 213.765625 217.277344 216.9375 Z M 259.796875 225.726562 C 259.371094 227.039062 258.738281 228.644531 257.640625 229.53125 C 256.457031 230.460938 254.851562 230.082031 253.707031 229.238281 C 252.355469 228.222656 251.636719 226.574219 250.917969 225.09375 C 250.625 224.460938 249.777344 224.839844 249.734375 225.390625 C 249.480469 229.617188 247.328125 233.929688 243.3125 235.746094 C 239.761719 237.351562 235.28125 236.632812 233.082031 233.210938 C 231.941406 231.390625 231.605469 229.152344 232.363281 227.125 C 232.574219 226.53125 231.6875 226.023438 231.308594 226.488281 C 229.492188 228.644531 226.40625 229.277344 223.785156 228.390625 C 220.996094 227.460938 219.347656 224.671875 219.304688 221.796875 C 219.261719 220.148438 219.726562 218.542969 220.699219 217.148438 C 220.910156 216.851562 220.828125 216.558594 220.574219 216.386719 C 223.617188 214.613281 226.574219 212.835938 229.53125 210.9375 C 234.941406 207.46875 240.3125 203.75 245.085938 199.480469 C 246.058594 198.636719 246.988281 197.707031 247.917969 196.734375 C 247.917969 196.734375 247.917969 196.734375 247.917969 196.777344 C 252.144531 201.382812 255.863281 206.75 258.273438 212.542969 C 259.414062 215.289062 260.261719 218.289062 260.300781 221.289062 C 260.429688 222.855469 260.261719 224.332031 259.796875 225.726562 Z M 259.796875 225.726562 " fill-opacity="1" fill-rule="nonzero"/><g clip-path="url(#0ec868faf7)"><path fill="#000000" d="M 177.503906 236.886719 C 177.589844 236.929688 177.671875 236.929688 177.714844 236.972656 C 177.925781 237.011719 178.097656 237.054688 178.308594 237.097656 C 178.390625 237.097656 178.476562 237.140625 178.601562 237.140625 C 178.601562 237.140625 178.601562 237.140625 178.644531 237.140625 C 178.6875 237.140625 178.6875 237.140625 178.730469 237.140625 C 178.898438 237.140625 179.109375 237.183594 179.28125 237.183594 C 179.320312 237.183594 179.363281 237.183594 179.40625 237.183594 C 179.492188 237.183594 179.574219 237.140625 179.660156 237.140625 C 179.746094 237.097656 179.828125 237.097656 179.914062 237.054688 C 179.914062 237.054688 179.914062 237.054688 179.957031 237.054688 C 179.996094 237.054688 179.996094 237.011719 180.039062 237.011719 C 180.039062 237.011719 179.996094 237.011719 179.996094 236.972656 C 180.082031 236.800781 180.082031 236.632812 179.996094 236.421875 C 179.914062 236.210938 179.785156 235.957031 179.703125 235.746094 C 179.703125 235.703125 179.660156 235.703125 179.660156 235.660156 C 175.941406 227.082031 170.953125 219.050781 164.953125 211.867188 C 163.640625 210.300781 162.246094 208.738281 160.808594 207.257812 C 165.035156 208.144531 169.304688 209.035156 173.53125 209.964844 C 174.082031 210.089844 174.503906 209.539062 174.25 209.035156 C 169.8125 200.960938 164.78125 193.183594 159.246094 185.789062 C 157.933594 184.054688 156.582031 182.320312 155.230469 180.632812 C 158.484375 180.503906 161.738281 180.378906 164.992188 180.292969 C 165.289062 180.292969 165.457031 180.125 165.542969 179.914062 C 165.667969 179.953125 165.839844 179.996094 165.964844 179.953125 C 166.304688 179.871094 166.472656 179.53125 166.429688 179.195312 C 165.921875 176.320312 165.203125 173.488281 164.273438 170.742188 C 164.234375 170.570312 164.148438 170.488281 164.023438 170.402344 C 163.21875 168.5 162.332031 166.640625 161.359375 164.824219 C 158.824219 160.132812 156.160156 155.355469 151.808594 152.101562 C 147.15625 148.425781 141.199219 146.945312 135.40625 147.75 C 129.574219 148.550781 124.335938 151.804688 120.699219 156.414062 C 117.066406 161.0625 115.5 166.980469 115.710938 172.855469 C 115.921875 178.984375 117.953125 184.859375 121.039062 190.140625 C 120.996094 190.183594 120.953125 190.226562 120.910156 190.308594 C 117.953125 196.691406 114.992188 203.160156 113.554688 210.046875 C 112.839844 213.386719 112.5 216.808594 112.753906 220.234375 C 112.964844 223.109375 113.597656 227.125 117.191406 227.375 C 118.839844 227.503906 120.53125 226.660156 121.628906 225.433594 C 122.390625 224.585938 122.941406 223.574219 123.40625 222.515625 C 124.121094 224.796875 125.644531 226.828125 127.96875 227.757812 C 130.714844 228.855469 134.140625 228.011719 135.578125 225.304688 C 135.832031 224.796875 136.042969 224.292969 136.125 223.742188 C 137.226562 224.796875 138.703125 225.433594 140.226562 225.515625 C 142.929688 225.644531 145.296875 223.867188 146.398438 221.460938 C 146.988281 220.191406 147.242188 218.882812 147.15625 217.488281 C 147.496094 217.742188 147.792969 217.992188 148.128906 218.246094 C 153.285156 222.179688 158.652344 225.855469 164.191406 229.277344 C 166.9375 230.96875 169.769531 232.660156 172.558594 234.265625 C 174.25 235.113281 175.898438 235.957031 177.503906 236.886719 Z M 145.933594 217.273438 C 146.183594 219.9375 144.75 222.980469 142.128906 223.953125 C 139.886719 224.757812 137.015625 223.65625 136.085938 221.460938 C 136 221.164062 135.914062 220.910156 135.789062 220.613281 C 135.492188 219.9375 134.476562 220.359375 134.605469 221.078125 C 134.6875 221.375 134.773438 221.671875 134.902344 221.96875 C 135.152344 223.109375 134.773438 224.375 134.054688 225.304688 C 133.125 226.488281 131.644531 227.039062 130.167969 226.953125 C 126.703125 226.742188 124.460938 223.53125 124.207031 220.277344 C 124.164062 219.601562 123.234375 219.347656 122.980469 220.066406 C 122.09375 222.558594 120.742188 226.023438 117.570312 226.109375 C 114.316406 226.195312 114.0625 221.925781 113.9375 219.601562 C 113.640625 213.21875 115.289062 206.960938 117.570312 201.046875 C 118.839844 197.792969 120.277344 194.578125 121.757812 191.410156 C 125.011719 196.609375 129.152344 201.214844 133.464844 205.527344 C 137.480469 209.5 141.707031 213.21875 146.144531 216.683594 C 146.058594 216.808594 145.933594 216.980469 145.933594 217.273438 Z M 160.132812 225.09375 C 149.355469 218.035156 139.128906 209.964844 130.421875 200.410156 C 126.023438 195.59375 122.050781 190.269531 119.515625 184.222656 C 117.277344 178.8125 116.304688 172.726562 117.359375 166.9375 C 118.417969 161.1875 121.628906 155.992188 126.449219 152.609375 C 131.308594 149.1875 137.4375 147.960938 143.226562 149.269531 C 148.550781 150.453125 152.992188 153.707031 156.074219 158.144531 C 157.683594 160.46875 159.035156 162.921875 160.34375 165.414062 C 161.484375 167.570312 162.542969 169.769531 163.429688 172.050781 C 164.148438 174.292969 164.699219 176.574219 165.121094 178.855469 C 165.078125 178.855469 165.035156 178.855469 165.035156 178.855469 C 161.359375 178.984375 157.683594 179.109375 153.960938 179.238281 C 153.371094 179.238281 153.160156 179.914062 153.496094 180.292969 C 159.246094 187.394531 164.527344 194.875 169.261719 202.734375 C 170.363281 204.554688 171.417969 206.414062 172.433594 208.273438 C 167.953125 207.34375 163.515625 206.371094 159.035156 205.441406 C 158.441406 205.3125 157.933594 206.03125 158.398438 206.496094 C 165.164062 213.300781 170.910156 221.121094 175.390625 229.617188 C 176.40625 231.5625 177.335938 233.503906 178.222656 235.492188 C 178.179688 235.578125 178.136719 235.660156 178.097656 235.746094 C 177.632812 235.492188 177.167969 235.238281 176.742188 234.984375 C 171.121094 231.941406 165.542969 228.644531 160.132812 225.09375 Z M 160.132812 225.09375 " fill-opacity="1" fill-rule="nonzero"/></g></svg>