<svg width="38" height="40" viewBox="0 0 38 40" fill="none" xmlns="http://www.w3.org/2000/svg">
<path fill-rule="evenodd" clip-rule="evenodd" d="M7.28752 14.4667C7.28752 14.4667 6.90527 4.17628 10.9742 1.43568C15.095 -1.25316 27.9984 0.0908003 30.9798 3.34855C34.0165 6.65807 31.1971 17.6708 31.1971 17.6708L26.9681 17.2054C26.9681 17.2054 28.2148 8.20768 27.7268 6.50139C27.1849 4.79465 15.8537 4.07368 14.4979 4.94993C13.1426 5.82664 12.0584 15.4987 12.0584 15.4987L7.28752 14.4667Z" fill="#DD739C"/>
<path fill-rule="evenodd" clip-rule="evenodd" d="M29.085 17.4134L26.971 17.2073C26.971 17.2073 28.2172 8.20953 27.7297 6.50324C27.1874 4.79649 15.8561 4.07552 14.5008 4.95178C14.5008 4.95178 15.8018 3.45253 18.8385 2.98668C21.8203 2.46999 28.3807 3.65866 29.4125 4.95178C30.226 5.93432 29.5206 13.6907 29.087 17.4134H29.085Z" fill="#DA3C78"/>
<mask id="mask0_32_31" style="mask-type:luminance" maskUnits="userSpaceOnUse" x="0" y="11" width="38" height="29">
<path d="M0 11.7584H38V40H0V11.7584Z" fill="white"/>
</mask>
<g mask="url(#mask0_32_31)">
<path fill-rule="evenodd" clip-rule="evenodd" d="M18.6726 40.0624C24.4199 39.8558 42.7452 29.1 36.8358 17.931C30.9265 6.76205 19.9202 18.396 19.9202 18.396C19.9202 18.396 18.4019 10.3812 7.28754 12.0875C-3.82684 13.7425 -3.71964 32.2547 18.6726 40.0624Z" fill="#F499C1"/>
</g>
<mask id="mask1_32_31" style="mask-type:luminance" maskUnits="userSpaceOnUse" x="0" y="11" width="19" height="29">
<path d="M0 11.7584H18.7516V40H0V11.7584Z" fill="white"/>
</mask>
<g mask="url(#mask1_32_31)">
<path fill-rule="evenodd" clip-rule="evenodd" d="M15.9076 13.174C14.0099 12.0875 11.2449 11.4673 7.28754 12.0875C-3.82684 13.7425 -3.71964 32.2547 18.6726 40.0624C18.6726 40.0624 3.9802 29.4623 6.25721 19.5855C7.55871 13.8973 12.2214 12.967 15.9076 13.174Z" fill="#F289B7"/>
</g>
<path fill-rule="evenodd" clip-rule="evenodd" d="M17.4803 26.773L15.9076 30.7032L20.303 31.1682L19.7607 27.0318C19.7607 27.0318 22.58 25.894 21.3872 23.7223C20.1938 21.5511 14.0643 22.2721 17.4803 26.773Z" fill="#DA3C78"/>
<path fill-rule="evenodd" clip-rule="evenodd" d="M17.4803 26.773L15.9076 30.7032L18.8933 31.011L18.351 27.1326C18.351 27.1326 21.1703 25.9952 19.9775 23.8748C19.8606 23.7052 19.7257 23.5504 19.5715 23.4104C19.4177 23.2703 19.2489 23.1488 19.0655 23.0457C18.8822 22.9427 18.6891 22.8609 18.4863 22.7999C18.2831 22.7393 18.0755 22.7014 17.8635 22.6862C16.5076 23.1506 15.7485 24.4461 17.4812 26.7707L17.4803 26.773Z" fill="#DD739C"/>
</svg>
