<svg xmlns="http://www.w3.org/2000/svg" xmlns:xlink="http://www.w3.org/1999/xlink" width="500" zoomAndPan="magnify" viewBox="0 0 375 374.999991" height="500" preserveAspectRatio="xMidYMid meet" version="1.0"><defs><clipPath id="4fda33311f"><path d="M 31 123 L 337 123 L 337 361.703125 L 31 361.703125 Z M 31 123 " clip-rule="nonzero"/></clipPath><clipPath id="7254dcb32c"><path d="M 31 123 L 182 123 L 182 361.703125 L 31 361.703125 Z M 31 123 " clip-rule="nonzero"/></clipPath></defs><path fill="#dd739c" d="M 89.683594 145.890625 C 89.683594 145.890625 86.605469 58.914062 119.371094 35.75 C 152.554688 13.023438 256.460938 24.382812 280.46875 51.917969 C 304.921875 79.890625 282.21875 172.972656 282.21875 172.972656 L 248.164062 169.039062 C 248.164062 169.039062 258.203125 92.988281 254.273438 78.566406 C 249.910156 64.140625 158.664062 58.046875 147.746094 65.453125 C 136.832031 72.863281 128.101562 154.613281 128.101562 154.613281 Z M 89.683594 145.890625 " fill-opacity="1" fill-rule="evenodd"/><path fill="#da3c78" d="M 265.210938 170.796875 L 248.1875 169.054688 C 248.1875 169.054688 258.222656 93.003906 254.296875 78.582031 C 249.929688 64.15625 158.683594 58.0625 147.769531 65.46875 C 147.769531 65.46875 158.246094 52.796875 182.699219 48.859375 C 206.710938 44.492188 259.539062 54.539062 267.847656 65.46875 C 274.398438 73.773438 268.71875 139.332031 265.226562 170.796875 Z M 265.210938 170.796875 " fill-opacity="1" fill-rule="evenodd"/><g clip-path="url(#4fda33311f)"><path fill="#f499c1" d="M 181.363281 362.230469 C 227.644531 360.484375 375.210938 269.574219 327.625 175.171875 C 280.039062 80.769531 191.410156 179.101562 191.410156 179.101562 C 191.410156 179.101562 179.183594 111.359375 89.683594 125.78125 C 0.183594 139.769531 1.046875 296.238281 181.363281 362.230469 Z M 181.363281 362.230469 " fill-opacity="1" fill-rule="evenodd"/></g><g clip-path="url(#7254dcb32c)"><path fill="#f289b7" d="M 159.097656 134.964844 C 143.816406 125.78125 121.550781 120.539062 89.683594 125.78125 C 0.183594 139.769531 1.046875 296.238281 181.363281 362.230469 C 181.363281 362.230469 63.050781 272.636719 81.386719 189.15625 C 91.867188 141.078125 129.414062 133.214844 159.097656 134.964844 Z M 159.097656 134.964844 " fill-opacity="1" fill-rule="evenodd"/></g><path fill="#da3c78" d="M 171.761719 249.90625 L 159.097656 283.125 L 194.492188 287.054688 L 190.125 252.09375 C 190.125 252.09375 212.828125 242.476562 203.222656 224.121094 C 193.613281 205.769531 144.253906 211.863281 171.761719 249.90625 Z M 171.761719 249.90625 " fill-opacity="1" fill-rule="evenodd"/><path fill="#dd739c" d="M 171.761719 249.90625 L 159.097656 283.125 L 183.140625 285.726562 L 178.773438 252.945312 C 178.773438 252.945312 201.476562 243.332031 191.871094 225.410156 C 190.929688 223.976562 189.84375 222.667969 188.601562 221.484375 C 187.363281 220.300781 186.003906 219.273438 184.527344 218.402344 C 183.050781 217.53125 181.496094 216.839844 179.863281 216.324219 C 178.226562 215.8125 176.554688 215.492188 174.847656 215.363281 C 163.929688 219.289062 157.816406 230.238281 171.769531 249.886719 Z M 171.761719 249.90625 " fill-opacity="1" fill-rule="evenodd"/></svg>