<svg xmlns="http://www.w3.org/2000/svg" xmlns:xlink="http://www.w3.org/1999/xlink" width="500" zoomAndPan="magnify" viewBox="0 0 375 374.999991" height="500" preserveAspectRatio="xMidYMid meet" version="1.0"><defs><clipPath id="3707027c17"><path d="M 81.636719 81.636719 L 293.136719 81.636719 L 293.136719 293.136719 L 81.636719 293.136719 Z M 81.636719 81.636719 " clip-rule="nonzero"/></clipPath><clipPath id="302d9465ab"><path d="M 139 133.089844 L 236.839844 133.089844 L 236.839844 241 L 139 241 Z M 139 133.089844 " clip-rule="nonzero"/></clipPath><clipPath id="021fe1f737"><path d="M 87.078125 87.078125 L 288 87.078125 L 288 288 L 87.078125 288 Z M 87.078125 87.078125 " clip-rule="nonzero"/></clipPath></defs><g clip-path="url(#3707027c17)"><path fill="#da3c78" d="M 293.359375 187.5 C 293.359375 189.230469 293.316406 190.960938 293.234375 192.691406 C 293.148438 194.421875 293.019531 196.152344 292.851562 197.875 C 292.679688 199.597656 292.46875 201.316406 292.214844 203.03125 C 291.960938 204.746094 291.664062 206.453125 291.324219 208.152344 C 290.988281 209.851562 290.609375 211.539062 290.1875 213.222656 C 289.765625 214.902344 289.304688 216.570312 288.800781 218.230469 C 288.296875 219.886719 287.753906 221.53125 287.171875 223.164062 C 286.589844 224.792969 285.964844 226.410156 285.300781 228.011719 C 284.640625 229.609375 283.9375 231.195312 283.195312 232.761719 C 282.457031 234.328125 281.675781 235.875 280.859375 237.402344 C 280.042969 238.929688 279.191406 240.4375 278.300781 241.921875 C 277.410156 243.410156 276.480469 244.871094 275.519531 246.3125 C 274.558594 247.753906 273.558594 249.167969 272.527344 250.558594 C 271.496094 251.953125 270.429688 253.316406 269.332031 254.65625 C 268.230469 255.996094 267.101562 257.308594 265.9375 258.589844 C 264.773438 259.875 263.578125 261.128906 262.355469 262.355469 C 261.128906 263.578125 259.875 264.773438 258.589844 265.9375 C 257.308594 267.101562 255.996094 268.230469 254.65625 269.332031 C 253.316406 270.429688 251.953125 271.496094 250.558594 272.527344 C 249.167969 273.558594 247.753906 274.558594 246.3125 275.519531 C 244.871094 276.480469 243.410156 277.410156 241.921875 278.300781 C 240.4375 279.191406 238.929688 280.042969 237.402344 280.859375 C 235.875 281.675781 234.328125 282.457031 232.761719 283.195312 C 231.195312 283.9375 229.609375 284.640625 228.011719 285.300781 C 226.410156 285.964844 224.792969 286.589844 223.164062 287.171875 C 221.53125 287.753906 219.886719 288.300781 218.230469 288.800781 C 216.570312 289.304688 214.902344 289.765625 213.222656 290.1875 C 211.539062 290.609375 209.851562 290.988281 208.152344 291.324219 C 206.453125 291.664062 204.746094 291.960938 203.03125 292.214844 C 201.316406 292.46875 199.597656 292.679688 197.875 292.851562 C 196.152344 293.019531 194.421875 293.148438 192.691406 293.234375 C 190.960938 293.316406 189.230469 293.359375 187.5 293.359375 C 185.765625 293.359375 184.035156 293.316406 182.304688 293.234375 C 180.574219 293.148438 178.847656 293.019531 177.121094 292.851562 C 175.398438 292.679688 173.679688 292.46875 171.964844 292.214844 C 170.253906 291.960938 168.546875 291.664062 166.847656 291.324219 C 165.148438 290.988281 163.457031 290.609375 161.777344 290.1875 C 160.097656 289.765625 158.425781 289.304688 156.769531 288.800781 C 155.109375 288.300781 153.464844 287.753906 151.835938 287.171875 C 150.203125 286.589844 148.589844 285.964844 146.988281 285.300781 C 145.386719 284.640625 143.804688 283.9375 142.238281 283.195312 C 140.671875 282.457031 139.125 281.675781 137.597656 280.859375 C 136.066406 280.042969 134.5625 279.191406 133.074219 278.300781 C 131.589844 277.410156 130.125 276.480469 128.683594 275.519531 C 127.246094 274.558594 125.828125 273.558594 124.4375 272.527344 C 123.046875 271.496094 121.679688 270.429688 120.339844 269.332031 C 119 268.230469 117.691406 267.101562 116.40625 265.9375 C 115.121094 264.773438 113.867188 263.578125 112.644531 262.355469 C 111.417969 261.128906 110.222656 259.875 109.0625 258.589844 C 107.898438 257.308594 106.765625 255.996094 105.667969 254.65625 C 104.566406 253.316406 103.503906 251.953125 102.46875 250.558594 C 101.4375 249.167969 100.441406 247.753906 99.476562 246.3125 C 98.515625 244.871094 97.589844 243.410156 96.699219 241.921875 C 95.808594 240.4375 94.953125 238.929688 94.136719 237.402344 C 93.320312 235.875 92.542969 234.328125 91.800781 232.761719 C 91.0625 231.195312 90.359375 229.609375 89.695312 228.011719 C 89.03125 226.410156 88.410156 224.792969 87.824219 223.164062 C 87.242188 221.53125 86.699219 219.886719 86.195312 218.230469 C 85.691406 216.570312 85.230469 214.902344 84.808594 213.222656 C 84.390625 211.539062 84.007812 209.851562 83.671875 208.152344 C 83.332031 206.453125 83.039062 204.746094 82.785156 203.03125 C 82.527344 201.316406 82.316406 199.597656 82.148438 197.875 C 81.976562 196.152344 81.851562 194.421875 81.765625 192.691406 C 81.679688 190.960938 81.636719 189.230469 81.636719 187.5 C 81.636719 185.765625 81.679688 184.035156 81.765625 182.304688 C 81.851562 180.574219 81.976562 178.847656 82.148438 177.121094 C 82.316406 175.398438 82.527344 173.679688 82.785156 171.964844 C 83.039062 170.253906 83.332031 168.546875 83.671875 166.847656 C 84.007812 165.148438 84.390625 163.457031 84.808594 161.777344 C 85.230469 160.097656 85.691406 158.425781 86.195312 156.769531 C 86.699219 155.109375 87.242188 153.464844 87.824219 151.835938 C 88.410156 150.203125 89.03125 148.589844 89.695312 146.988281 C 90.359375 145.386719 91.0625 143.804688 91.800781 142.238281 C 92.542969 140.671875 93.320312 139.125 94.136719 137.597656 C 94.953125 136.066406 95.808594 134.5625 96.699219 133.074219 C 97.589844 131.589844 98.515625 130.125 99.476562 128.683594 C 100.441406 127.246094 101.4375 125.828125 102.46875 124.4375 C 103.503906 123.046875 104.566406 121.679688 105.667969 120.339844 C 106.765625 119 107.898438 117.691406 109.0625 116.40625 C 110.222656 115.121094 111.417969 113.867188 112.644531 112.644531 C 113.867188 111.417969 115.121094 110.222656 116.40625 109.0625 C 117.691406 107.898438 119 106.765625 120.339844 105.667969 C 121.679688 104.566406 123.046875 103.503906 124.4375 102.46875 C 125.828125 101.4375 127.246094 100.441406 128.683594 99.476562 C 130.125 98.515625 131.589844 97.589844 133.074219 96.699219 C 134.5625 95.808594 136.066406 94.953125 137.597656 94.136719 C 139.125 93.320312 140.671875 92.542969 142.238281 91.800781 C 143.804688 91.0625 145.386719 90.359375 146.988281 89.695312 C 148.589844 89.03125 150.203125 88.410156 151.835938 87.824219 C 153.464844 87.242188 155.109375 86.699219 156.769531 86.195312 C 158.425781 85.691406 160.097656 85.230469 161.777344 84.808594 C 163.457031 84.390625 165.148438 84.007812 166.847656 83.671875 C 168.546875 83.332031 170.253906 83.039062 171.964844 82.785156 C 173.679688 82.527344 175.398438 82.316406 177.121094 82.148438 C 178.847656 81.976562 180.574219 81.851562 182.304688 81.765625 C 184.035156 81.679688 185.765625 81.636719 187.5 81.636719 C 189.230469 81.636719 190.960938 81.679688 192.691406 81.765625 C 194.421875 81.851562 196.152344 81.976562 197.875 82.148438 C 199.597656 82.316406 201.316406 82.527344 203.03125 82.785156 C 204.746094 83.039062 206.453125 83.332031 208.152344 83.671875 C 209.851562 84.007812 211.539062 84.390625 213.222656 84.808594 C 214.902344 85.230469 216.570312 85.691406 218.230469 86.195312 C 219.886719 86.699219 221.53125 87.242188 223.164062 87.824219 C 224.792969 88.410156 226.410156 89.03125 228.011719 89.695312 C 229.609375 90.359375 231.195312 91.0625 232.761719 91.800781 C 234.328125 92.542969 235.875 93.320312 237.402344 94.136719 C 238.929688 94.953125 240.4375 95.808594 241.921875 96.699219 C 243.410156 97.589844 244.871094 98.515625 246.3125 99.476562 C 247.753906 100.441406 249.167969 101.4375 250.558594 102.46875 C 251.953125 103.503906 253.316406 104.566406 254.65625 105.667969 C 255.996094 106.765625 257.308594 107.898438 258.589844 109.0625 C 259.875 110.222656 261.128906 111.417969 262.355469 112.644531 C 263.578125 113.867188 264.773438 115.121094 265.9375 116.40625 C 267.101562 117.691406 268.230469 119 269.332031 120.339844 C 270.429688 121.679688 271.496094 123.046875 272.527344 124.4375 C 273.558594 125.828125 274.558594 127.246094 275.519531 128.683594 C 276.480469 130.125 277.410156 131.589844 278.300781 133.074219 C 279.191406 134.5625 280.042969 136.066406 280.859375 137.597656 C 281.675781 139.125 282.457031 140.671875 283.195312 142.238281 C 283.9375 143.804688 284.640625 145.386719 285.300781 146.988281 C 285.964844 148.589844 286.589844 150.203125 287.171875 151.835938 C 287.753906 153.464844 288.300781 155.109375 288.800781 156.769531 C 289.304688 158.425781 289.765625 160.097656 290.1875 161.777344 C 290.609375 163.457031 290.988281 165.148438 291.324219 166.847656 C 291.664062 168.546875 291.960938 170.253906 292.214844 171.964844 C 292.46875 173.679688 292.679688 175.398438 292.851562 177.121094 C 293.019531 178.847656 293.148438 180.574219 293.234375 182.304688 C 293.316406 184.035156 293.359375 185.765625 293.359375 187.5 Z M 293.359375 187.5 " fill-opacity="1" fill-rule="nonzero"/></g><g clip-path="url(#302d9465ab)"><path fill="#ffffff" d="M 225.058594 135.875 C 210.449219 139.082031 175.949219 146.761719 174.554688 147.085938 C 172.773438 147.503906 168.953125 147.863281 168.953125 152.71875 L 168.953125 217.3125 C 164.933594 215.046875 158.8125 214.753906 152.691406 216.957031 C 143.621094 220.226562 138.015625 227.710938 140.1875 233.703125 C 142.355469 239.695312 151.460938 241.898438 160.496094 238.628906 C 168.917969 235.582031 174.363281 228.910156 173.355469 223.175781 L 173.355469 174.328125 C 173.355469 171.636719 173.292969 168.171875 180.289062 166.683594 C 183.496094 166 227.128906 156.285156 227.128906 156.285156 L 227.128906 201.441406 C 223.113281 199.109375 216.925781 198.785156 210.738281 201.019531 C 201.667969 204.289062 196.066406 211.773438 198.234375 217.765625 C 200.40625 223.757812 209.507812 225.960938 218.546875 222.691406 C 226.902344 219.675781 232.28125 213.101562 231.4375 207.398438 L 231.535156 207.398438 L 231.535156 145.238281 C 231.535156 137.527344 236.976562 137.332031 236.976562 137.332031 L 236.976562 133.089844 Z M 225.058594 135.875 " fill-opacity="1" fill-rule="nonzero"/></g><g clip-path="url(#021fe1f737)"><path fill="#ffffff" d="M 187.496094 87.078125 C 132.089844 87.078125 87.078125 132.089844 87.078125 187.496094 C 87.078125 242.898438 132.089844 287.914062 187.496094 287.914062 C 242.898438 287.914062 287.914062 242.898438 287.914062 187.496094 C 287.914062 132.089844 242.898438 87.078125 187.496094 87.078125 Z M 187.496094 91.441406 C 240.597656 91.441406 283.546875 134.390625 283.546875 187.496094 C 283.546875 240.597656 240.597656 283.546875 187.496094 283.546875 C 134.390625 283.546875 91.441406 240.597656 91.441406 187.496094 C 91.441406 134.390625 134.390625 91.441406 187.496094 91.441406 Z M 187.496094 91.441406 " fill-opacity="1" fill-rule="nonzero"/></g></svg>