<svg width="43" height="39" viewBox="0 0 43 39" fill="none" xmlns="http://www.w3.org/2000/svg">
<path d="M24.1111 34.7515V1.5276C24.1111 0.633835 25.1942 0.188972 25.8224 0.824691L42.2387 17.4366C42.6237 17.8262 42.6237 18.4529 42.2387 18.8424L25.8224 35.4544C25.1942 36.0901 24.1111 35.6452 24.1111 34.7515Z" fill="#D6D6D6"/>
<path d="M1.86673 33.723C7.61719 21.5009 11.0253 13.9834 24.1112 12.945C37.1971 11.9066 24.1112 23.334 24.1112 23.334C12.5754 23.0234 6.72161 26.1433 1.86673 33.723Z" fill="#D6D6D6"/>
<path d="M23.1778 36.5654V3.34156C23.1778 2.4478 24.2608 2.00294 24.8891 2.63866L41.3054 19.2506C41.6903 19.6401 41.6903 20.2669 41.3054 20.6564L24.8891 37.2683C24.2608 37.904 23.1778 37.4592 23.1778 36.5654Z" fill="white"/>
<path d="M0.93338 35.537C6.68384 23.3148 10.0919 15.7974 23.1778 14.759C36.2637 13.7205 23.1778 25.148 23.1778 25.148C11.642 24.8374 5.78826 27.9573 0.93338 35.537Z" fill="white"/>
</svg>
