<svg width="46" height="40" viewBox="0 0 46 40" fill="none" xmlns="http://www.w3.org/2000/svg">
<path fill-rule="evenodd" clip-rule="evenodd" d="M4 35.8361C8.8931 29.8632 13.2383 26.4739 17.0356 25.6682C20.8329 24.8625 24.4483 24.7408 27.8818 25.303V36L44 18.5453L27.8818 2V12.167C21.5333 12.2172 16.1362 14.4948 11.6905 19C7.2447 23.5052 4.6813 29.1172 4 35.8361Z" fill="#D6D6D6" stroke="#D6D6D6" stroke-width="3" stroke-linejoin="round"/>
<path fill-rule="evenodd" clip-rule="evenodd" d="M2 37.8361C6.8931 31.8632 11.2383 28.4739 15.0356 27.6682C18.8329 26.8625 22.4483 26.7408 25.8818 27.303V38L42 20.5453L25.8818 4V14.167C19.5333 14.2172 14.1362 16.4948 9.6905 21C5.2447 25.5052 2.6813 31.1172 2 37.8361Z" fill="white" stroke="white" stroke-width="3" stroke-linejoin="round"/>
</svg>
