<svg width="42" height="39" viewBox="0 0 42 39" fill="none" xmlns="http://www.w3.org/2000/svg">
<path d="M24.1111 29.8823V6.39676C24.1111 3.71547 27.3603 2.38089 29.245 4.28804L40.8495 16.0308C42.0043 17.1994 42.0043 19.0796 40.8495 20.2482L29.245 31.991C27.3603 33.8982 24.1111 32.5636 24.1111 29.8823Z" fill="#D6D6D6"/>
<path d="M1.86673 33.723C7.61719 21.5009 11.0253 13.9834 24.1112 12.945C37.1971 11.9066 24.1112 23.334 24.1112 23.334C12.5754 23.0234 6.72161 26.1433 1.86673 33.723Z" fill="#D6D6D6"/>
<path d="M23.1778 31.6963V8.21073C23.1778 5.52944 26.4269 4.19485 28.3116 6.10201L39.9161 17.8448C41.071 19.0134 41.071 20.8936 39.9161 22.0622L28.3116 33.805C26.4269 35.7121 23.1778 34.3776 23.1778 31.6963Z" fill="white"/>
<path d="M0.93338 35.537C6.68384 23.3148 10.0919 15.7974 23.1778 14.759C36.2637 13.7205 23.1778 25.148 23.1778 25.148C11.642 24.8374 5.78826 27.9573 0.93338 35.537Z" fill="white"/>
</svg>
