<svg width="53" height="53" viewBox="0 0 53 53" fill="none" xmlns="http://www.w3.org/2000/svg">
    <g filter="url(#filter0_d_64_875)">
        <path d="M35.7979 13.8697L35.7978 13.8697C34.7255 13.7067 33.8093 13.0053 33.3382 12.0079L28.5282 1.82471L28.9803 1.61116L28.5282 1.8247C27.6939 0.05838 25.3056 0.0586685 24.4719 1.82415L24.4719 1.82421L19.6615 12.0079C19.6615 12.0079 19.6614 12.0079 19.6614 12.0079C19.1904 13.0053 18.2741 13.7067 17.2018 13.8697L17.2017 13.8697L6.44626 15.5025C4.6104 15.7812 3.81822 18.1849 5.19489 19.5872L35.7979 13.8697ZM35.7979 13.8697L46.5539 15.503L46.6289 15.0087L46.5539 15.503C48.3898 15.7817 49.1819 18.1849 47.8048 19.5871L47.8048 19.5872L40.0218 27.5142C40.0218 27.5142 40.0218 27.5142 40.0218 27.5142C39.2555 28.2946 38.9104 29.4125 39.09 30.5034C39.09 30.5035 39.09 30.5036 39.09 30.5037L40.927 41.696C41.2553 43.6965 39.2672 45.1127 37.6483 44.2233L37.6482 44.2232L28.0278 38.9389C28.0278 38.9389 28.0278 38.9389 28.0278 38.9389C27.072 38.4137 25.9277 38.4137 24.9719 38.9389C24.9719 38.9389 24.9718 38.9389 24.9718 38.9389L15.3519 44.2232L15.3519 44.2233C13.7328 45.1128 11.7444 43.6969 12.0727 41.696C12.0727 41.696 12.0727 41.696 12.0727 41.696L13.9102 30.5035C14.0893 29.4126 13.7443 28.2947 12.9779 27.5142C12.9779 27.5142 12.9779 27.5142 12.9779 27.5142L5.1949 19.5872L35.7979 13.8697Z" fill="#DA3C78" stroke="white"/>
        <path d="M14.259 17.1439L19.5403 16.236C19.5403 16.236 19.5403 16.236 19.5404 16.236C20.2938 16.1066 20.9381 15.6071 21.2744 14.9113L21.2744 14.9113L24.5851 8.06039C24.8124 7.59084 25.3399 7.4249 25.7594 7.64655L25.7596 7.64669C26.1928 7.87526 26.3861 8.44729 26.154 8.92805C26.154 8.9281 26.1539 8.92815 26.1539 8.92819L22.8426 15.7787L22.8426 15.7788C22.2448 17.0161 21.1108 17.8805 19.8201 18.1021L19.8201 18.1021L14.5387 19.0095L14.5381 19.0096C14.4912 19.0177 14.4445 19.0216 14.3971 19.0216C13.9898 19.0216 13.6032 18.7103 13.5284 18.2338L13.5283 18.2334C13.4436 17.6968 13.7936 17.2238 14.2589 17.1439L14.259 17.1439ZM11.2664 18.7168V18.7171C11.2664 19.2964 10.8226 19.7276 10.3211 19.7276C9.81952 19.7276 9.37543 19.2961 9.37543 18.7171C9.37543 18.1386 9.81903 17.7071 10.3211 17.7071C10.8229 17.7071 11.2667 18.1387 11.2664 18.7168Z" fill="white" stroke="white"/>
    </g>
    <defs>
        <filter id="filter0_d_64_875" x="0" y="0" width="53" height="53">
            <feOffset dy="4"/>
            <feGaussianBlur stdDeviation="2"/>
            <feComposite in2="hardAlpha" operator="out"/>
            <feColorMatrix values="0 0 0 0 0 0 0 0 0 0 0 0 0 0 0 0 0 0 0.25 0"/>
            <feBlend in2="BackgroundImageFix" result="effect1_dropShadow_64_875"/>
            <feBlend in="SourceGraphic" in2="effect1_dropShadow_64_875" result="shape"/>
        </filter>
    </defs>
</svg>