<svg width="38" height="41" viewBox="0 0 38 41" fill="none" xmlns="http://www.w3.org/2000/svg">
<path d="M4 20V5.24525C4 2.925 6.52116 1.48304 8.52106 2.65945L21 10L33.6041 17.4142C35.5761 18.5741 35.5761 21.4258 33.6041 22.5858L21 30L8.52106 37.3406C6.52116 38.517 4 37.075 4 34.7547V20Z" fill="white" stroke="#D6D6D6" stroke-width="3" stroke-linejoin="round"/>
<path d="M2 21V6.24525C2 3.925 4.52116 2.48304 6.52106 3.65945L19 11L31.6041 18.4142C33.5761 19.5741 33.5761 22.4258 31.6041 23.5858L19 31L6.52106 38.3406C4.52116 39.517 2 38.075 2 35.7547V21Z" fill="white" stroke="white" stroke-width="3" stroke-linejoin="round"/>
</svg>
