<svg width="43" height="40" viewBox="0 0 43 40" fill="none" xmlns="http://www.w3.org/2000/svg">
<path d="M18.4629 20.6596V1.25822C18.4629 0.472384 17.5982 -0.00639111 16.9322 0.410704L1.44218 10.1114C0.816534 10.5032 0.816534 11.4146 1.44218 11.8064L16.9322 21.5071C17.5982 21.9242 18.4629 21.4454 18.4629 20.6596Z" fill="#D6D6D6"/>
<path d="M40.1777 20.3736C34.5642 12.9896 31.2373 8.44803 18.4629 7.82067C5.68862 7.19331 18.4629 14.0971 18.4629 14.0971C29.7241 13.9095 35.4385 15.7944 40.1777 20.3736Z" fill="#D6D6D6"/>
<path d="M19.3741 21.7555V2.35411C19.3741 1.56827 18.5093 1.0895 17.8433 1.50659L2.35332 11.2073C1.72767 11.5991 1.72767 12.5105 2.35332 12.9023L17.8433 22.603C18.5093 23.0201 19.3741 22.5413 19.3741 21.7555Z" fill="white"/>
<path d="M41.0889 21.4695C35.4753 14.0855 32.1484 9.54392 19.3741 8.91656C6.59975 8.2892 19.3741 15.193 19.3741 15.193C30.6352 15.0054 36.3496 16.8902 41.0889 21.4695Z" fill="white"/>
<path d="M24.5371 19.3404V38.7418C24.5371 39.5276 25.4018 40.0064 26.0678 39.5893L41.5578 29.8886C42.1835 29.4968 42.1835 28.5854 41.5578 28.1936L26.0678 18.4929C25.4018 18.0758 24.5371 18.5546 24.5371 19.3404Z" fill="#D6D6D6"/>
<path d="M2.82225 19.6264C8.43579 27.0104 11.7627 31.552 24.5371 32.1793C37.3114 32.8067 24.5371 25.9029 24.5371 25.9029C13.2759 26.0905 7.56153 24.2056 2.82225 19.6264Z" fill="#D6D6D6"/>
<path d="M23.6259 18.2445V37.6459C23.6259 38.4317 24.4907 38.9105 25.1567 38.4934L40.6467 28.7927C41.2723 28.4009 41.2723 27.4895 40.6467 27.0977L25.1567 17.397C24.4907 16.9799 23.6259 17.4587 23.6259 18.2445Z" fill="white"/>
<path d="M1.91112 18.5305C7.52466 25.9145 10.8516 30.4561 23.6259 31.0834C36.4002 31.7108 23.6259 24.807 23.6259 24.807C12.3648 24.9946 6.6504 23.1098 1.91112 18.5305Z" fill="white"/>
</svg>
