<svg width="41" height="40" viewBox="0 0 41 40" fill="none" xmlns="http://www.w3.org/2000/svg">
<path d="M17.4629 17.0472V4.87056C17.4629 2.51304 14.8687 1.07671 12.8707 2.328L3.14881 8.41635C1.27187 9.59179 1.27187 12.326 3.14881 13.5015L12.8707 19.5898C14.8687 20.8411 17.4629 19.4048 17.4629 17.0472Z" fill="#D6D6D6"/>
<path d="M39.1777 20.3736C33.5642 12.9896 30.2373 8.44803 17.4629 7.82067C4.68862 7.19331 17.4629 14.0971 17.4629 14.0971C28.7241 13.9095 34.4385 15.7944 39.1777 20.3736Z" fill="#D6D6D6"/>
<path d="M18.3741 18.1431V5.96645C18.3741 3.60892 15.7798 2.1726 13.7818 3.42389L4.05995 9.51223C2.183 10.6877 2.183 13.4219 4.05995 14.5974L13.7818 20.6857C15.7798 21.937 18.3741 20.5007 18.3741 18.1431Z" fill="white"/>
<path d="M40.0889 21.4695C34.4753 14.0855 31.1484 9.54392 18.3741 8.91656C5.59975 8.2892 18.3741 15.193 18.3741 15.193C29.6352 15.0054 35.3496 16.8902 40.0889 21.4695Z" fill="white"/>
<path d="M23.5371 22.9528V35.1294C23.5371 37.487 26.1313 38.9233 28.1293 37.672L37.8512 31.5837C39.7281 30.4082 39.7281 27.674 37.8512 26.4985L28.1293 20.4102C26.1313 19.1589 23.5371 20.5952 23.5371 22.9528Z" fill="#D6D6D6"/>
<path d="M1.82225 19.6264C7.43579 27.0104 10.7627 31.552 23.5371 32.1793C36.3114 32.8067 23.5371 25.9029 23.5371 25.9029C12.2759 26.0905 6.56153 24.2056 1.82225 19.6264Z" fill="#D6D6D6"/>
<path d="M22.6259 21.8569V34.0336C22.6259 36.3911 25.2202 37.8274 27.2182 36.5761L36.9401 30.4878C38.817 29.3123 38.817 26.5781 36.9401 25.4026L27.2182 19.3143C25.2202 18.063 22.6259 19.4993 22.6259 21.8569Z" fill="white"/>
<path d="M0.911118 18.5305C6.52466 25.9145 9.85161 30.4561 22.6259 31.0834C35.4002 31.7108 22.6259 24.807 22.6259 24.807C11.3648 24.9946 5.6504 23.1098 0.911118 18.5305Z" fill="white"/>
</svg>
