<svg width="42" height="42" viewBox="0 0 42 42" fill="none" xmlns="http://www.w3.org/2000/svg">
<path d="M32.6066 30.6066C29.8922 33.3211 26.1422 35 22 35C13.7157 35 7 28.2842 7 20C7 11.7157 13.7157 5 22 5C26.1422 5 29.8922 6.67893 32.6066 9.39342C33.9883 10.7751 37 14.1667 37 14.1667" stroke="#D6D6D6" stroke-width="5" stroke-linecap="round" stroke-linejoin="round"/>
<path d="M37 6.66666V14.1667H29.5" stroke="#D6D6D6" stroke-width="5" stroke-linecap="round" stroke-linejoin="round"/>
<path d="M30.6066 32.6066C27.8922 35.3211 24.1422 37 20 37C11.7157 37 5 30.2842 5 22C5 13.7157 11.7157 7 20 7C24.1422 7 27.8922 8.67893 30.6066 11.3934C31.9883 12.7751 35 16.1667 35 16.1667" stroke="white" stroke-width="5" stroke-linecap="round" stroke-linejoin="round"/>
<path d="M35 8.66666V16.1667H27.5" stroke="white" stroke-width="5" stroke-linecap="round" stroke-linejoin="round"/>
</svg>
