<svg width="40" height="40" viewBox="0 0 40 40" fill="none" xmlns="http://www.w3.org/2000/svg">
<path fill-rule="evenodd" clip-rule="evenodd" d="M31.7941 14.2723C32.2648 13.797 33.0794 13.8908 33.3573 14.4884C35.6036 19.319 34.6702 25.2761 30.5277 29.459C25.095 34.9447 16.2 35.3015 10.6602 30.2558C5.12035 25.2101 5.03356 16.6727 10.4663 11.187C15.3269 6.27901 22.959 5.4766 28.48 8.97558C28.9807 9.29293 29.0291 9.96477 28.6149 10.383L27.6583 11.349C27.2979 11.713 26.7118 11.7529 26.2733 11.4808C21.7883 8.69814 15.7275 9.28464 11.9073 13.142C7.59323 17.4982 7.77037 24.3763 12.303 28.5046C16.8357 32.633 24.0074 32.4483 28.3215 28.0921C31.5128 24.8697 32.2464 20.2673 30.5774 16.4188C30.4133 16.0404 30.4795 15.5998 30.7743 15.3021L31.7941 14.2723Z" fill="#D6D6D6"/>
<path d="M29.5671 11.2862C30.2953 10.9835 30.4129 10.0029 29.7755 9.54945L21.2332 3.47318C20.6148 3.03325 19.744 3.42207 19.6532 4.17871L18.4375 14.3118C18.3467 15.0684 19.1026 15.6367 19.8091 15.343L29.5671 11.2862Z" fill="#D6D6D6"/>
<path fill-rule="evenodd" clip-rule="evenodd" d="M31.1646 14.8806C31.6353 14.4052 32.4499 14.499 32.7278 15.0966C34.9741 19.9272 34.0408 25.8844 29.8983 30.0672C24.4655 35.553 15.5705 35.9097 10.0307 30.864C4.4909 25.8183 4.40411 17.281 9.83685 11.7952C14.6975 6.88723 22.3295 6.08482 27.8505 9.58379C28.3513 9.90114 28.3997 10.573 27.9855 10.9912L27.0289 11.9573C26.6684 12.3212 26.0824 12.3611 25.6438 12.089C21.1589 9.30636 15.098 9.89286 11.2779 13.7503C6.96377 18.1064 7.14092 24.9845 11.6736 29.1129C16.2062 33.2412 23.3779 33.0565 27.692 28.7003C30.8833 25.4779 31.617 20.8755 29.948 17.027C29.7839 16.6486 29.85 16.208 30.1448 15.9103L31.1646 14.8806Z" fill="white"/>
<path d="M28.9377 11.8944C29.6658 11.5917 29.7835 10.6111 29.146 10.1577L20.6038 4.0814C19.9853 3.64146 19.1145 4.03028 19.0237 4.78692L17.808 14.92C17.7172 15.6766 18.4732 16.2449 19.1797 15.9512L28.9377 11.8944Z" fill="white"/>
</svg>
