<svg width="41" height="38" viewBox="0 0 41 38" fill="none" xmlns="http://www.w3.org/2000/svg">
<path d="M36.351 16.1914C38.3901 17.3382 38.3901 20.2741 36.351 21.421L15.4358 33.1845C13.436 34.3093 10.9651 32.8641 10.9651 30.5697V7.04259C10.9651 4.74817 13.436 3.30303 15.4358 4.4278L36.351 16.1914Z" fill="#D6D6D6"/>
<path d="M35.3975 16.679C37.4366 17.8259 37.4366 20.7617 35.3975 21.9086L14.4823 33.6722C12.4825 34.7969 10.0116 33.3518 10.0116 31.0574V7.53023C10.0116 5.23581 12.4825 3.79067 14.4823 4.91544L35.3975 16.679Z" fill="white"/>
<rect x="6.8822" y="4" width="29.2683" height="6.09003" rx="3" transform="rotate(90 6.8822 4)" fill="#D6D6D6"/>
<rect x="6.09015" y="4.73172" width="29.2683" height="6.09003" rx="3" transform="rotate(90 6.09015 4.73172)" fill="white"/>
</svg>
