<svg width="41" height="38" viewBox="0 0 41 38" fill="none" xmlns="http://www.w3.org/2000/svg">
<path d="M39.3499 17.6547C40.0548 18.0314 40.0548 19.0418 39.3499 19.4185L12.4365 33.8033C11.7704 34.1593 10.9651 33.6767 10.9651 32.9214V4.15179C10.9651 3.39647 11.7704 2.91382 12.4365 3.26986L39.3499 17.6547Z" fill="#D6D6D6"/>
<path d="M38.3964 18.5815C39.1013 18.9582 39.1013 19.9686 38.3964 20.3454L11.483 34.7302C10.8169 35.0862 10.0116 34.6035 10.0116 33.8482V5.07864C10.0116 4.32332 10.8169 3.84067 11.483 4.19671L38.3964 18.5815Z" fill="white"/>
<rect x="6.8822" y="3.61905" width="30.0116" height="6.09003" rx="3" transform="rotate(90 6.8822 3.61905)" fill="#D6D6D6"/>
<rect x="6.09015" y="4.36935" width="30.0116" height="6.09003" rx="3" transform="rotate(90 6.09015 4.36935)" fill="white"/>
</svg>
