<svg xmlns="http://www.w3.org/2000/svg" xmlns:xlink="http://www.w3.org/1999/xlink" width="500" zoomAndPan="magnify" viewBox="0 0 375 374.999991" height="500" preserveAspectRatio="xMidYMid meet" version="1.0"><defs><clipPath id="30152cf279"><path d="M 81.636719 81.636719 L 293.136719 81.636719 L 293.136719 293.136719 L 81.636719 293.136719 Z M 81.636719 81.636719 " clip-rule="nonzero"/></clipPath><clipPath id="cfb2f9ba0f"><path d="M 86.40625 86.40625 L 288.90625 86.40625 L 288.90625 288.90625 L 86.40625 288.90625 Z M 86.40625 86.40625 " clip-rule="nonzero"/></clipPath><clipPath id="e5028acf3e"><path d="M 102 126 L 273 126 L 273 249 L 102 249 Z M 102 126 " clip-rule="nonzero"/></clipPath><clipPath id="f506e96e48"><path d="M 102.007812 235.785156 L 264.5 126.636719 L 272.863281 139.085938 L 110.371094 248.238281 Z M 102.007812 235.785156 " clip-rule="nonzero"/></clipPath><clipPath id="19751f4e54"><path d="M 102.007812 235.785156 L 264.5 126.636719 L 272.863281 139.085938 L 110.371094 248.238281 Z M 102.007812 235.785156 " clip-rule="nonzero"/></clipPath></defs><g clip-path="url(#30152cf279)"><path fill="#da3c78" d="M 293.359375 187.5 C 293.359375 189.230469 293.316406 190.960938 293.234375 192.691406 C 293.148438 194.421875 293.019531 196.152344 292.851562 197.875 C 292.679688 199.597656 292.46875 201.316406 292.214844 203.03125 C 291.960938 204.746094 291.664062 206.453125 291.324219 208.152344 C 290.988281 209.851562 290.609375 211.539062 290.1875 213.222656 C 289.765625 214.902344 289.304688 216.570312 288.800781 218.230469 C 288.300781 219.886719 287.753906 221.53125 287.171875 223.164062 C 286.589844 224.792969 285.964844 226.410156 285.300781 228.011719 C 284.640625 229.609375 283.9375 231.195312 283.195312 232.761719 C 282.457031 234.328125 281.675781 235.875 280.859375 237.402344 C 280.042969 238.929688 279.191406 240.4375 278.300781 241.921875 C 277.410156 243.410156 276.480469 244.871094 275.519531 246.3125 C 274.558594 247.753906 273.558594 249.167969 272.527344 250.558594 C 271.496094 251.953125 270.429688 253.316406 269.332031 254.65625 C 268.230469 255.996094 267.101562 257.308594 265.9375 258.589844 C 264.773438 259.875 263.578125 261.128906 262.355469 262.355469 C 261.128906 263.578125 259.875 264.773438 258.589844 265.9375 C 257.308594 267.101562 255.996094 268.230469 254.65625 269.332031 C 253.316406 270.429688 251.953125 271.496094 250.558594 272.527344 C 249.167969 273.558594 247.753906 274.558594 246.3125 275.519531 C 244.871094 276.480469 243.410156 277.410156 241.921875 278.300781 C 240.4375 279.191406 238.929688 280.042969 237.402344 280.859375 C 235.875 281.675781 234.328125 282.457031 232.761719 283.195312 C 231.195312 283.9375 229.609375 284.640625 228.011719 285.300781 C 226.410156 285.964844 224.792969 286.589844 223.164062 287.171875 C 221.53125 287.753906 219.886719 288.300781 218.230469 288.800781 C 216.570312 289.304688 214.902344 289.765625 213.222656 290.1875 C 211.539062 290.609375 209.851562 290.988281 208.152344 291.324219 C 206.453125 291.664062 204.746094 291.960938 203.03125 292.214844 C 201.316406 292.46875 199.597656 292.679688 197.875 292.851562 C 196.152344 293.019531 194.421875 293.148438 192.691406 293.234375 C 190.960938 293.316406 189.230469 293.359375 187.5 293.359375 C 185.765625 293.359375 184.035156 293.316406 182.304688 293.234375 C 180.574219 293.148438 178.847656 293.019531 177.121094 292.851562 C 175.398438 292.679688 173.679688 292.46875 171.964844 292.214844 C 170.253906 291.960938 168.546875 291.664062 166.847656 291.324219 C 165.148438 290.988281 163.457031 290.609375 161.777344 290.1875 C 160.097656 289.765625 158.425781 289.304688 156.769531 288.800781 C 155.109375 288.300781 153.464844 287.753906 151.835938 287.171875 C 150.203125 286.589844 148.589844 285.964844 146.988281 285.300781 C 145.386719 284.640625 143.804688 283.9375 142.238281 283.195312 C 140.671875 282.457031 139.125 281.675781 137.597656 280.859375 C 136.066406 280.042969 134.5625 279.191406 133.074219 278.300781 C 131.589844 277.410156 130.125 276.480469 128.683594 275.519531 C 127.246094 274.558594 125.828125 273.558594 124.4375 272.527344 C 123.046875 271.496094 121.679688 270.429688 120.339844 269.332031 C 119 268.230469 117.691406 267.101562 116.40625 265.9375 C 115.121094 264.773438 113.867188 263.578125 112.644531 262.355469 C 111.417969 261.128906 110.222656 259.875 109.0625 258.589844 C 107.898438 257.308594 106.765625 255.996094 105.667969 254.65625 C 104.566406 253.316406 103.503906 251.953125 102.46875 250.558594 C 101.4375 249.167969 100.441406 247.753906 99.476562 246.3125 C 98.515625 244.871094 97.589844 243.410156 96.699219 241.921875 C 95.808594 240.4375 94.953125 238.929688 94.136719 237.402344 C 93.320312 235.875 92.542969 234.328125 91.800781 232.761719 C 91.0625 231.195312 90.359375 229.609375 89.695312 228.011719 C 89.03125 226.410156 88.410156 224.792969 87.824219 223.164062 C 87.242188 221.53125 86.699219 219.886719 86.195312 218.230469 C 85.691406 216.570312 85.230469 214.902344 84.808594 213.222656 C 84.390625 211.539062 84.007812 209.851562 83.671875 208.152344 C 83.332031 206.453125 83.039062 204.746094 82.785156 203.03125 C 82.527344 201.316406 82.316406 199.597656 82.148438 197.875 C 81.976562 196.152344 81.851562 194.421875 81.765625 192.691406 C 81.679688 190.960938 81.636719 189.230469 81.636719 187.5 C 81.636719 185.765625 81.679688 184.035156 81.765625 182.304688 C 81.851562 180.574219 81.976562 178.847656 82.148438 177.121094 C 82.316406 175.398438 82.527344 173.679688 82.785156 171.964844 C 83.039062 170.253906 83.332031 168.546875 83.671875 166.847656 C 84.007812 165.148438 84.390625 163.457031 84.808594 161.777344 C 85.230469 160.097656 85.691406 158.425781 86.195312 156.769531 C 86.699219 155.109375 87.242188 153.464844 87.824219 151.835938 C 88.410156 150.203125 89.03125 148.589844 89.695312 146.988281 C 90.359375 145.386719 91.0625 143.804688 91.800781 142.238281 C 92.542969 140.671875 93.320312 139.125 94.136719 137.597656 C 94.953125 136.066406 95.808594 134.5625 96.699219 133.074219 C 97.589844 131.589844 98.515625 130.125 99.476562 128.683594 C 100.441406 127.246094 101.4375 125.828125 102.46875 124.4375 C 103.503906 123.046875 104.566406 121.679688 105.667969 120.339844 C 106.765625 119.003906 107.898438 117.691406 109.0625 116.40625 C 110.222656 115.125 111.417969 113.867188 112.644531 112.644531 C 113.867188 111.417969 115.121094 110.222656 116.40625 109.0625 C 117.691406 107.898438 119 106.765625 120.339844 105.667969 C 121.679688 104.566406 123.046875 103.503906 124.4375 102.46875 C 125.828125 101.4375 127.246094 100.441406 128.683594 99.476562 C 130.125 98.515625 131.589844 97.589844 133.074219 96.699219 C 134.5625 95.808594 136.066406 94.953125 137.597656 94.136719 C 139.125 93.320312 140.671875 92.542969 142.238281 91.800781 C 143.804688 91.0625 145.386719 90.359375 146.988281 89.695312 C 148.589844 89.03125 150.203125 88.410156 151.835938 87.824219 C 153.464844 87.242188 155.109375 86.699219 156.769531 86.195312 C 158.425781 85.691406 160.097656 85.230469 161.777344 84.808594 C 163.457031 84.390625 165.148438 84.007812 166.847656 83.671875 C 168.546875 83.332031 170.253906 83.039062 171.964844 82.785156 C 173.679688 82.527344 175.398438 82.316406 177.121094 82.148438 C 178.847656 81.976562 180.574219 81.851562 182.304688 81.765625 C 184.035156 81.679688 185.765625 81.636719 187.5 81.636719 C 189.230469 81.636719 190.960938 81.679688 192.691406 81.765625 C 194.421875 81.851562 196.152344 81.976562 197.875 82.148438 C 199.597656 82.316406 201.316406 82.527344 203.03125 82.785156 C 204.746094 83.039062 206.453125 83.332031 208.152344 83.671875 C 209.851562 84.007812 211.539062 84.390625 213.222656 84.808594 C 214.902344 85.230469 216.570312 85.691406 218.230469 86.195312 C 219.886719 86.699219 221.53125 87.242188 223.164062 87.824219 C 224.792969 88.410156 226.410156 89.03125 228.011719 89.695312 C 229.609375 90.359375 231.195312 91.0625 232.761719 91.800781 C 234.328125 92.542969 235.875 93.320312 237.402344 94.136719 C 238.929688 94.953125 240.4375 95.808594 241.921875 96.699219 C 243.410156 97.589844 244.871094 98.515625 246.3125 99.476562 C 247.753906 100.441406 249.167969 101.4375 250.558594 102.46875 C 251.953125 103.503906 253.316406 104.566406 254.65625 105.667969 C 255.996094 106.765625 257.308594 107.898438 258.589844 109.0625 C 259.875 110.222656 261.128906 111.417969 262.355469 112.644531 C 263.578125 113.867188 264.773438 115.125 265.9375 116.40625 C 267.101562 117.691406 268.230469 119.003906 269.332031 120.339844 C 270.429688 121.679688 271.496094 123.046875 272.527344 124.4375 C 273.558594 125.828125 274.558594 127.246094 275.519531 128.683594 C 276.480469 130.125 277.410156 131.589844 278.300781 133.074219 C 279.191406 134.5625 280.042969 136.066406 280.859375 137.597656 C 281.675781 139.125 282.457031 140.671875 283.195312 142.238281 C 283.9375 143.804688 284.640625 145.386719 285.300781 146.988281 C 285.964844 148.589844 286.589844 150.203125 287.171875 151.835938 C 287.753906 153.464844 288.300781 155.109375 288.800781 156.769531 C 289.304688 158.425781 289.765625 160.097656 290.1875 161.777344 C 290.609375 163.457031 290.988281 165.148438 291.324219 166.847656 C 291.664062 168.546875 291.960938 170.253906 292.214844 171.964844 C 292.46875 173.679688 292.679688 175.398438 292.851562 177.121094 C 293.019531 178.847656 293.148438 180.574219 293.234375 182.304688 C 293.316406 184.035156 293.359375 185.765625 293.359375 187.5 Z M 293.359375 187.5 " fill-opacity="1" fill-rule="nonzero"/></g><path fill="#ffffff" d="M 122.710938 172.996094 L 122.710938 206.554688 C 122.710938 208.140625 123.980469 209.304688 125.464844 209.304688 L 146.953125 209.304688 C 147.484375 209.304688 148.011719 209.414062 148.4375 209.730469 L 182.523438 232.066406 C 184.429688 233.230469 186.863281 231.960938 186.863281 229.738281 L 186.863281 147.800781 C 186.863281 145.578125 184.324219 144.203125 182.417969 145.578125 L 148.542969 169.820312 C 148.117188 170.136719 147.484375 170.347656 146.953125 170.347656 L 125.570312 170.347656 C 123.980469 170.242188 122.710938 171.515625 122.710938 172.996094 Z M 122.710938 172.996094 " fill-opacity="1" fill-rule="nonzero"/><path fill="#ffffff" d="M 204.542969 210.578125 C 203.800781 210.578125 203.058594 210.363281 202.425781 210.046875 C 200.519531 208.882812 199.882812 206.34375 200.941406 204.4375 C 209.625 189.722656 201.367188 176.914062 201.050781 176.382812 C 199.777344 174.476562 200.308594 171.9375 202.214844 170.667969 C 204.117188 169.398438 206.660156 169.925781 207.929688 171.832031 C 208.460938 172.574219 219.46875 189.40625 208.035156 208.671875 C 207.292969 209.835938 205.917969 210.578125 204.542969 210.578125 Z M 204.542969 210.578125 " fill-opacity="1" fill-rule="nonzero"/><path fill="#ffffff" d="M 220.527344 220.316406 C 219.679688 220.316406 218.832031 220.105469 218.09375 219.574219 C 216.292969 218.304688 215.765625 215.65625 217.140625 213.859375 C 235.03125 188.875 217.5625 168.019531 217.351562 167.808594 C 215.871094 166.113281 216.082031 163.46875 217.773438 161.988281 C 219.46875 160.503906 222.117188 160.714844 223.597656 162.410156 C 223.808594 162.621094 245.40625 188.453125 223.808594 218.621094 C 223.066406 219.679688 221.796875 220.316406 220.527344 220.316406 Z M 220.527344 220.316406 " fill-opacity="1" fill-rule="nonzero"/><path fill="#ffffff" d="M 235.453125 229.738281 C 234.605469 229.738281 233.65625 229.421875 232.914062 228.890625 C 231.113281 227.515625 230.796875 224.867188 232.171875 223.066406 C 259.167969 188.664062 233.441406 157.964844 232.277344 156.691406 C 230.796875 155 231.007812 152.351562 232.703125 150.871094 C 234.394531 149.390625 237.042969 149.601562 238.523438 151.292969 C 238.839844 151.613281 269.859375 188.453125 238.628906 228.148438 C 237.890625 229.207031 236.722656 229.738281 235.453125 229.738281 Z M 235.453125 229.738281 " fill-opacity="1" fill-rule="nonzero"/><g clip-path="url(#cfb2f9ba0f)"><path fill="#ffffff" d="M 187.496094 86.40625 C 131.722656 86.40625 86.40625 131.722656 86.40625 187.496094 C 86.40625 243.273438 131.722656 288.589844 187.496094 288.589844 C 243.273438 288.589844 288.589844 243.273438 288.589844 187.496094 C 288.589844 131.722656 243.273438 86.40625 187.496094 86.40625 Z M 187.496094 90.800781 C 240.957031 90.800781 284.195312 134.039062 284.195312 187.496094 C 284.195312 240.957031 240.957031 284.195312 187.496094 284.195312 C 134.039062 284.195312 90.800781 240.957031 90.800781 187.496094 C 90.800781 134.039062 134.039062 90.800781 187.496094 90.800781 Z M 187.496094 90.800781 " fill-opacity="1" fill-rule="nonzero"/></g><g clip-path="url(#e5028acf3e)"><g clip-path="url(#f506e96e48)"><g clip-path="url(#19751f4e54)"><path fill="#ffffff" d="M 102.035156 235.828125 L 264.558594 126.660156 L 272.953125 139.160156 L 110.433594 248.332031 Z M 102.035156 235.828125 " fill-opacity="1" fill-rule="nonzero"/></g></g></g></svg>