<svg width="42" height="42" viewBox="0 0 42 42" fill="none" xmlns="http://www.w3.org/2000/svg">
<mask id="mask0_43_4273" style="mask-type:luminance" maskUnits="userSpaceOnUse" x="4" y="10" width="35" height="25">
<path d="M4.63953 10.0012H38.9941V34.4268H4.63953V10.0012Z" fill="white"/>
</mask>
<g mask="url(#mask0_43_4273)">
<mask id="mask1_43_4273" style="mask-type:luminance" maskUnits="userSpaceOnUse" x="4" y="10" width="35" height="25">
<path d="M4.65338 31.9538L37.2921 10.0292L38.9529 12.5021L6.31417 34.4268L4.65338 31.9538Z" fill="white"/>
</mask>
<g mask="url(#mask1_43_4273)">
<mask id="mask2_43_4273" style="mask-type:luminance" maskUnits="userSpaceOnUse" x="4" y="10" width="35" height="25">
<path d="M4.65338 31.9538L37.2921 10.0292L38.9529 12.5021L6.31417 34.4268L4.65338 31.9538Z" fill="white"/>
</mask>
<g mask="url(#mask2_43_4273)">
<path d="M4.65875 31.9623L37.3572 9.99736L39.0475 12.513L6.34825 34.478L4.65875 31.9623Z" fill="white"/>
</g>
</g>
</g>
<mask id="mask3_43_4273" style="mask-type:luminance" maskUnits="userSpaceOnUse" x="0" y="0" width="42" height="42">
<path d="M0 0H42V42H0V0Z" fill="white"/>
</mask>
<g mask="url(#mask3_43_4273)">
<path d="M42.0442 21.0225C42.0442 21.3661 42.0357 21.7098 42.0194 22.0534C42.0023 22.3971 41.9767 22.7407 41.9434 23.0828C41.9092 23.4249 41.8674 23.7662 41.8169 24.1067C41.7665 24.4473 41.7076 24.7862 41.6401 25.1237C41.5734 25.4611 41.4981 25.7962 41.4143 26.1305C41.3306 26.4641 41.239 26.7953 41.139 27.125C41.0397 27.4539 40.9311 27.7805 40.8155 28.1047C40.6999 28.4282 40.5758 28.7493 40.4439 29.0674C40.3128 29.3846 40.1732 29.6996 40.0258 30.0106C39.8792 30.3217 39.7241 30.6289 39.5619 30.9322C39.3998 31.2355 39.2307 31.5349 39.0539 31.8297C38.877 32.1252 38.6924 32.4153 38.5016 32.7016C38.3107 32.9878 38.1121 33.2686 37.9074 33.5448C37.7026 33.8217 37.4908 34.0924 37.2728 34.3585C37.0541 34.6246 36.8299 34.8852 36.5987 35.1396C36.3676 35.3948 36.1302 35.6438 35.8874 35.8874C35.6438 36.1302 35.3948 36.3676 35.1396 36.5987C34.8852 36.8299 34.6246 37.0541 34.3585 37.2728C34.0924 37.4908 33.8217 37.7026 33.5448 37.9074C33.2686 38.1121 32.9878 38.3107 32.7016 38.5016C32.4153 38.6924 32.1252 38.877 31.8297 39.0539C31.5349 39.2307 31.2355 39.3998 30.9322 39.5619C30.6289 39.7241 30.3217 39.8792 30.0106 40.0258C29.6996 40.1732 29.3846 40.3128 29.0674 40.4439C28.7493 40.5758 28.4282 40.6999 28.1047 40.8155C27.7805 40.9311 27.4539 41.0397 27.125 41.139C26.7953 41.239 26.4641 41.3306 26.1305 41.4143C25.7962 41.4981 25.4611 41.5734 25.1237 41.6401C24.7862 41.7076 24.4473 41.7665 24.1067 41.8169C23.7662 41.8674 23.4249 41.9092 23.0828 41.9434C22.7407 41.9767 22.3971 42.0023 22.0534 42.0194C21.7098 42.0357 21.3661 42.0442 21.0225 42.0442C20.6781 42.0442 20.3344 42.0357 19.9908 42.0194C19.6472 42.0023 19.3043 41.9767 18.9614 41.9434C18.6193 41.9092 18.278 41.8674 17.9375 41.8169C17.5977 41.7665 17.2588 41.7076 16.9213 41.6401C16.5839 41.5734 16.248 41.4981 15.9145 41.4143C15.5809 41.3306 15.2489 41.239 14.92 41.139C14.5903 41.0397 14.2637 40.9311 13.9403 40.8155C13.616 40.6999 13.2957 40.5758 12.9776 40.4439C12.6596 40.3128 12.3454 40.1732 12.0344 40.0258C11.7233 39.8792 11.4161 39.7241 11.1128 39.5619C10.8087 39.3998 10.5101 39.2307 10.2145 39.0539C9.91977 38.877 9.62888 38.6924 9.34264 38.5016C9.05718 38.3107 8.7756 38.1121 8.49945 37.9074C8.22329 37.7026 7.9518 37.4908 7.68573 37.2728C7.41966 37.0541 7.1598 36.8299 6.90459 36.5987C6.64938 36.3676 6.40038 36.1302 6.15758 35.8874C5.91401 35.6438 5.67664 35.3948 5.44625 35.1396C5.21509 34.8852 4.99014 34.6246 4.77216 34.3585C4.55341 34.0924 4.34242 33.8217 4.13686 33.5448C3.93207 33.2686 3.73426 32.9878 3.54266 32.7016C3.35184 32.4153 3.168 32.1252 2.99113 31.8297C2.81427 31.5349 2.64439 31.2355 2.48227 30.9322C2.32015 30.6289 2.16578 30.3217 2.0184 30.0106C1.87179 29.6996 1.73216 29.3846 1.60029 29.0674C1.46842 28.7493 1.34508 28.4282 1.22872 28.1047C1.11314 27.7805 1.00532 27.4539 0.905253 27.125C0.805186 26.7953 0.713652 26.4641 0.629876 26.1305C0.546875 25.7962 0.470855 25.4611 0.404144 25.1237C0.336658 24.7862 0.27848 24.4473 0.228059 24.1067C0.176862 23.7662 0.134973 23.4249 0.101618 23.0828C0.0674865 22.7407 0.0426639 22.3971 0.0255984 22.0534C0.0085329 21.7098 0 21.3661 0 21.0225C0 20.6781 0.0085329 20.3344 0.0255984 19.9908C0.0426639 19.6472 0.0674865 19.3043 0.101618 18.9614C0.134973 18.6193 0.176862 18.278 0.228059 17.9375C0.27848 17.5977 0.336658 17.2588 0.404144 16.9213C0.470855 16.5839 0.546875 16.248 0.629876 15.9145C0.713652 15.5809 0.805186 15.2489 0.905253 14.92C1.00532 14.5903 1.11314 14.2637 1.22872 13.9403C1.34508 13.616 1.46842 13.2957 1.60029 12.9776C1.73216 12.6596 1.87179 12.3454 2.0184 12.0344C2.16578 11.7233 2.32015 11.4161 2.48227 11.1128C2.64439 10.8087 2.81427 10.5101 2.99113 10.2145C3.168 9.91977 3.35184 9.62888 3.54266 9.34264C3.73426 9.05718 3.93207 8.7756 4.13686 8.49945C4.34242 8.22329 4.55341 7.9518 4.77216 7.68573C4.99014 7.41966 5.21509 7.1598 5.44625 6.90459C5.67664 6.64938 5.91401 6.40038 6.15758 6.15758C6.40038 5.91401 6.64938 5.67664 6.90459 5.44625C7.1598 5.21509 7.41966 4.99014 7.68573 4.77216C7.9518 4.55341 8.22329 4.34242 8.49945 4.13686C8.7756 3.93207 9.05718 3.73426 9.34264 3.54266C9.62888 3.35184 9.91977 3.168 10.2145 2.99113C10.5101 2.81427 10.8087 2.64439 11.1128 2.48227C11.4161 2.32015 11.7233 2.16578 12.0344 2.0184C12.3454 1.87179 12.6596 1.73216 12.9776 1.60029C13.2957 1.46842 13.616 1.34508 13.9403 1.22872C14.2637 1.11314 14.5903 1.00532 14.92 0.905253C15.2489 0.805186 15.5809 0.713652 15.9145 0.629876C16.248 0.546875 16.5839 0.470855 16.9213 0.404144C17.2588 0.336658 17.5977 0.27848 17.9375 0.228059C18.278 0.176862 18.6193 0.134973 18.9614 0.101618C19.3043 0.0674865 19.6472 0.0426639 19.9908 0.0255984C20.3344 0.0085329 20.6781 0 21.0225 0C21.3661 0 21.7098 0.0085329 22.0534 0.0255984C22.3971 0.0426639 22.7407 0.0674865 23.0828 0.101618C23.4249 0.134973 23.7662 0.176862 24.1067 0.228059C24.4473 0.27848 24.7862 0.336658 25.1237 0.404144C25.4611 0.470855 25.7962 0.546875 26.1305 0.629876C26.4641 0.713652 26.7953 0.805186 27.125 0.905253C27.4539 1.00532 27.7805 1.11314 28.1047 1.22872C28.4282 1.34508 28.7493 1.46842 29.0674 1.60029C29.3846 1.73216 29.6996 1.87179 30.0106 2.0184C30.3217 2.16578 30.6289 2.32015 30.9322 2.48227C31.2355 2.64439 31.5349 2.81427 31.8297 2.99113C32.1252 3.168 32.4153 3.35184 32.7016 3.54266C32.9878 3.73426 33.2686 3.93207 33.5448 4.13686C33.8217 4.34242 34.0924 4.55341 34.3585 4.77216C34.6246 4.99014 34.8852 5.21509 35.1396 5.44625C35.3948 5.67664 35.6438 5.91401 35.8874 6.15758C36.1302 6.40038 36.3676 6.64938 36.5987 6.90459C36.8299 7.1598 37.0541 7.41966 37.2728 7.68573C37.4908 7.9518 37.7026 8.22329 37.9074 8.49945C38.1121 8.7756 38.3107 9.05718 38.5016 9.34264C38.6924 9.62888 38.877 9.91977 39.0539 10.2145C39.2307 10.5101 39.3998 10.8087 39.5619 11.1128C39.7241 11.4161 39.8792 11.7233 40.0258 12.0344C40.1732 12.3454 40.3128 12.6596 40.4439 12.9776C40.5758 13.2957 40.6999 13.616 40.8155 13.9403C40.9311 14.2637 41.0397 14.5903 41.139 14.92C41.239 15.2489 41.3306 15.5809 41.4143 15.9145C41.4981 16.248 41.5734 16.5839 41.6401 16.9213C41.7076 17.2588 41.7665 17.5977 41.8169 17.9375C41.8674 18.278 41.9092 18.6193 41.9434 18.9614C41.9767 19.3043 42.0023 19.6472 42.0194 19.9908C42.0357 20.3344 42.0442 20.6781 42.0442 21.0225Z" fill="#DA3C78"/>
</g>
<path d="M8.15656 18.1423V24.8064C8.15656 25.1214 8.40866 25.3525 8.70343 25.3525H12.9706C13.0761 25.3525 13.1808 25.3735 13.2654 25.4371L20.0342 29.8726C20.4128 30.1037 20.896 29.8516 20.896 29.4103V13.139C20.896 12.6976 20.3918 12.4246 20.0133 12.6976L13.2863 17.5117C13.2018 17.5745 13.0761 17.6164 12.9706 17.6164H8.72437C8.40866 17.5954 8.15656 17.8483 8.15656 18.1423Z" fill="white"/>
<path d="M24.4069 25.6054C24.2596 25.6054 24.1122 25.5627 23.9865 25.4999C23.608 25.2687 23.4815 24.7645 23.6917 24.386C25.4161 21.4639 23.7763 18.9203 23.7135 18.8148C23.4606 18.4363 23.5661 17.9321 23.9446 17.68C24.3224 17.4279 24.8274 17.5326 25.0795 17.9111C25.185 18.0585 27.3709 21.401 25.1004 25.2268C24.953 25.458 24.68 25.6054 24.4069 25.6054Z" fill="white"/>
<path d="M27.5811 27.5392C27.4128 27.5392 27.2444 27.4974 27.0978 27.3919C26.7402 27.1398 26.6355 26.6138 26.9086 26.257C30.4613 21.2956 26.9923 17.154 26.9504 17.1122C26.6565 16.7755 26.6983 16.2503 27.0342 15.9556C27.3709 15.6616 27.8968 15.7035 28.1908 16.0401C28.2327 16.082 32.5216 21.2118 28.2327 27.2026C28.0853 27.4128 27.8332 27.5392 27.5811 27.5392Z" fill="white"/>
<path d="M30.5451 29.4103C30.3767 29.4103 30.1882 29.3467 30.0409 29.2419C29.6833 28.9689 29.6204 28.443 29.8935 28.0854C35.2544 21.2537 30.1456 15.1574 29.9144 14.9045C29.6204 14.5686 29.6623 14.0427 29.999 13.7487C30.3349 13.4547 30.8608 13.4966 31.1548 13.8325C31.2176 13.8961 37.3775 21.2118 31.1757 29.0945C31.0291 29.3048 30.7972 29.4103 30.5451 29.4103Z" fill="white"/>
<mask id="mask4_43_4273" style="mask-type:luminance" maskUnits="userSpaceOnUse" x="0" y="0" width="42" height="41">
<path d="M0.947144 0.798203H41.1599V40.9799H0.947144V0.798203Z" fill="white"/>
</mask>
<g mask="url(#mask4_43_4273)">
<path d="M21.0217 0.798203C9.94615 0.798203 0.947144 9.7972 0.947144 20.8728C0.947144 31.9491 9.94615 40.9481 21.0217 40.9481C32.0981 40.9481 41.0971 31.9491 41.0971 20.8728C41.0971 9.7972 32.0981 0.798203 21.0217 0.798203ZM21.0217 1.67088C31.6381 1.67088 40.2244 10.2572 40.2244 20.8728C40.2244 31.4891 31.6381 40.0755 21.0217 40.0755C10.4061 40.0755 1.81982 31.4891 1.81982 20.8728C1.81982 10.2572 10.4061 1.67088 21.0217 1.67088Z" fill="white"/>
</g>
</svg>
