<svg xmlns="http://www.w3.org/2000/svg" xmlns:xlink="http://www.w3.org/1999/xlink" width="500" zoomAndPan="magnify" viewBox="0 0 375 374.999991" height="500" preserveAspectRatio="xMidYMid meet" version="1.0"><path fill="#fbe6ee" d="M 207.457031 25.703125 L 246.160156 104.125 C 249.402344 110.695312 255.667969 115.246094 262.917969 116.300781 L 349.464844 128.878906 C 367.71875 131.53125 375.007812 153.960938 361.796875 166.835938 L 299.171875 227.882812 C 293.925781 232.996094 291.53125 240.363281 292.773438 247.582031 L 307.554688 333.777344 C 310.671875 351.957031 291.59375 365.824219 275.265625 357.238281 L 197.855469 316.542969 C 191.371094 313.132812 183.625 313.132812 177.140625 316.542969 L 99.734375 357.238281 C 83.40625 365.824219 64.324219 351.960938 67.441406 333.777344 L 82.226562 247.582031 C 83.464844 240.363281 81.070312 232.996094 75.824219 227.882812 L 13.199219 166.835938 C -0.0078125 153.960938 7.28125 131.527344 25.535156 128.875 L 112.078125 116.300781 C 119.328125 115.246094 125.59375 110.695312 128.835938 104.125 L 167.542969 25.699219 C 175.703125 9.160156 199.292969 9.160156 207.457031 25.703125 Z M 207.457031 25.703125 " fill-opacity="1" fill-rule="nonzero"/><path fill="#ffffff" d="M 188.335938 83.726562 L 161.691406 136.484375 C 156.339844 147.085938 146.148438 154.570312 134.429688 156.496094 L 91.933594 163.484375 C 91.320312 163.585938 90.714844 163.632812 90.113281 163.632812 C 84.761719 163.632812 80.042969 159.765625 79.148438 154.3125 C 78.148438 148.246094 82.257812 142.523438 88.320312 141.527344 L 130.816406 134.535156 C 135.546875 133.757812 139.664062 130.738281 141.828125 126.453125 L 168.46875 73.691406 C 171.242188 68.207031 177.933594 66.003906 183.417969 68.777344 C 188.902344 71.546875 191.105469 78.238281 188.335938 83.726562 Z M 57.316406 145.808594 C 50.890625 145.808594 45.683594 151.015625 45.683594 157.4375 C 45.683594 163.863281 50.894531 169.070312 57.316406 169.070312 C 63.738281 169.070312 68.945312 163.863281 68.945312 157.4375 C 68.949219 151.015625 63.738281 145.808594 57.316406 145.808594 Z M 57.316406 145.808594 " fill-opacity="1" fill-rule="nonzero"/></svg>