<svg width="45" height="45" viewBox="0 0 45 45" fill="none" xmlns="http://www.w3.org/2000/svg">
<path d="M31.7979 13.8697L31.7978 13.8697C30.7255 13.7067 29.8093 13.0053 29.3382 12.0079L24.5282 1.82471L24.9803 1.61116L24.5282 1.8247C23.6939 0.05838 21.3056 0.0586685 20.4719 1.82415L20.4719 1.82421L15.6615 12.0079C15.6615 12.0079 15.6614 12.0079 15.6614 12.0079C15.1904 13.0053 14.2741 13.7067 13.2018 13.8697L13.2017 13.8697L2.44626 15.5025C0.610401 15.7812 -0.181779 18.1849 1.19489 19.5872L31.7979 13.8697ZM31.7979 13.8697L42.5539 15.503L42.6289 15.0087L42.5539 15.503C44.3898 15.7817 45.1819 18.1849 43.8048 19.5871L43.8048 19.5872L36.0218 27.5142C36.0218 27.5142 36.0218 27.5142 36.0218 27.5142C35.2555 28.2946 34.9104 29.4125 35.09 30.5034C35.09 30.5035 35.09 30.5036 35.09 30.5037L36.927 41.696C37.2553 43.6965 35.2672 45.1127 33.6483 44.2233L33.6482 44.2232L24.0278 38.9389C24.0278 38.9389 24.0278 38.9389 24.0278 38.9389C23.072 38.4137 21.9277 38.4137 20.9719 38.9389C20.9719 38.9389 20.9718 38.9389 20.9718 38.9389L11.3519 44.2232L11.3519 44.2233C9.73282 45.1128 7.74443 43.6969 8.07268 41.696C8.07268 41.696 8.07268 41.696 8.07269 41.696L9.91016 30.5035C10.0893 29.4126 9.74426 28.2947 8.97787 27.5142C8.97787 27.5142 8.97786 27.5142 8.97785 27.5142L1.1949 19.5872L31.7979 13.8697Z" fill="#FBE6EE" stroke="#D6D6D6"/>
<path d="M22.604 9.14558L19.2926 15.9963C18.6275 17.3729 17.3609 18.3447 15.9045 18.5948L10.6232 19.5022C10.5469 19.5154 10.4717 19.5215 10.3969 19.5215C9.73184 19.5215 9.1454 19.0194 9.03423 18.3113C8.90995 17.5235 9.42066 16.7804 10.1741 16.6511L15.4555 15.7431C16.0434 15.6422 16.5551 15.2501 16.824 14.6937L20.1349 7.8425C20.4796 7.13035 21.3112 6.84427 21.9928 7.2044C22.6744 7.56403 22.9482 8.43292 22.604 9.14558ZM6.32096 17.207C5.52237 17.207 4.87524 17.8832 4.87524 18.717C4.87524 19.5514 5.52286 20.2276 6.32096 20.2276C7.11907 20.2276 7.76619 19.5514 7.76619 18.717C7.76668 17.8832 7.11907 17.207 6.32096 17.207Z" fill="white"/>
</svg>
